<svg clip-rule="evenodd" stroke-linecap="round" stroke-linejoin="round" stroke-miterlimit="10" viewBox="0 0 200 200" xmlns="http://www.w3.org/2000/svg"><path d="m99.5583 6.77904c-1.8304.02673-4.6167.29146-7.539 1.39688-3.7077 1.40308-6.6844 3.73858-8.8333 6.94338l-2.0131 2.9991 2.2391 7.991c-1.2975.9016-2.8242 2.1881-4.2728 3.9647-1.9182 2.3534-3.3398 5.1217-4.2317 8.1964-.2231.7695-.4195 1.5473-.5752 2.3624l-.1849-.0616-2.5883 7.272c-.1367.3877-.8392 2.4869-1.3148 5.4848-.651 4.104-.5729 7.9446.226 11.4216l.6163 2.7116.1849.1232-4.0264 3.8004-2.3212-3.143-14.4208 14.9138 1.5201 3.9647h-6.4708-3.9031v.041h-24.2811l18.5909 17.6456c.8002.76 1.6516 1.537 2.5267 2.322l4.4782 4.026-.5752 3.307-.1643.966-.0822.493-3.8825 22.802 13.9072-2.897c.6686 5.085 1.8206 10.113 3.4306 14.955 2.4062 7.241 5.7979 13.942 10.0863 19.967l1.1093 1.644h.1233c.1082.141.2207.292.3286.431 10.4759 13.525 21.5638 20.399 32.9499 20.399 2.716 0 5.459-.402 8.155-1.192l.226-.061c9.294-2.788 16.494-9.7 20.892-14.996l.041-.062.062-.061c.216-.286.426-.593.657-.904 2.118-2.669 3.413-4.757 3.718-5.259l.021-.021c4.288-6.025 7.68-12.748 10.086-19.987 1.628-4.898 2.786-9.977 3.451-15.12l2.897.801.102.021c.576.129 1.035.246 1.48.349l4.272.986 3.677-2.424c1.183-.781 2.373-1.586 3.534-2.403l5.361-3.78-2.424-13.106-2.116-11.422 18.345-17.4196-30.218-.0205-.041-.0205h-4.396l1.52-3.9647-14.421-14.9138-2.321 3.143-4.088-3.862.082-.0616.637-2.7116c.799-3.4764.877-7.3176.226-11.4216-.486-3.0652-1.251-5.2452-1.335-5.4848l-2.568-7.272-.185.0616c-.156-.815-.352-1.5925-.575-2.3624-.892-3.0747-2.313-5.8429-4.232-8.1964-1.448-1.7766-2.975-3.0632-4.273-3.9647l2.219-7.991-1.993-2.9991c-2.148-3.2042-5.125-5.5403-8.833-6.94338-2.921-1.1051-5.71-1.36983-7.539-1.39688h-.082c-.091-.00198-.18.00001-.2674 0h-.041c-.0865 0-.1773-.00165-.2671 0zm.0411 2.7116h.0822c.0713-.00132.1527-.00001.226 0h.041c.0734 0 .1494-.00165.2264 0h.082c1.611.02376 4.062.26702 6.614 1.23256 3.169 1.1991 5.712 3.1912 7.539 5.9162l1.295 1.9515-2.445 8.7511c1.297.6946 3.402 2.0795 5.341 4.4577 1.687 2.0686 2.95 4.5092 3.739 7.2309.477 1.6443.793 3.409.924 5.2589l.781-.2671 1.664 4.7453c.112.3198 2.748 7.8732 1.027 15.3657l-.411 1.7667-1.828 1.4379.698 3.8415 1.13-2.1365 4.869 4.6426 1.91 1.8078 2.239-3.0403 10.99 11.3394-1.15 3.0403c-.364.949-.866 1.9432-1.459 2.9992h7.766l.02.041h24.302l-13.64 12.962c-.276.262-.55.527-.822.781l1.767 9.675 2.711 14.606-3.944 2.773c-1.137.8-2.291 1.596-3.451 2.363l-2.691 1.766-3.143-.739c-.449-.104-.939-.198-1.52-.329h-.021l-5.896-1.643c-.535 6.042-1.773 11.999-3.677 17.728-2.324 6.994-5.618 13.478-9.757 19.289l-.062.123c-.199.331-1.456 2.384-3.595 5.074-.234.316-.457.612-.678.904l-.02.021v.02c-4.159 5.008-10.934 11.52-19.577 14.113l-.226.061c-2.442.716-4.918 1.069-7.375 1.069-10.5008 0-20.8595-6.485-30.7929-19.31l-.0205-.021c-.3082-.398-.6228-.809-.9245-1.212-.0676-.09-.1377-.176-.2054-.267h-.0205l-.3082-.472c-4.1396-5.812-7.4127-12.316-9.737-19.31-1.8644-5.608-3.1036-11.427-3.6566-17.338-.7299.146-1.4269.288-2.1159.432l-10.8053 2.259 3.369-19.741.1027-.596.8217-4.807-4.848-4.334c-.0667-.059-.2465-.206-.2465-.206l-.5136-.472c-.852-.764-1.6833-1.518-2.4651-2.26l-13.6401-12.962h19.7207v-.041h3.3279 9.0181c-.5904-1.0524-1.0747-2.0509-1.438-2.9992l-1.1504-3.0403 10.9902-11.3394 2.2391 3.0403 6.779-6.4504 1.0271 1.9516.6574-3.6566-1.8283-1.4379-.4108-1.7667c-1.7219-7.4925.8944-15.047 1.0066-15.3657l1.6844-4.7453.7806.2671c.131-1.8499.4473-3.6146.9244-5.2589.7894-2.7217 2.032-5.1623 3.7182-7.2309 1.9387-2.3779 4.0648-3.7631 5.3616-4.4577l-2.4651-8.7511 1.3147-1.9515c1.8271-2.7253 4.3709-4.7174 7.5391-5.9162 2.5534-.96587 5.0017-1.2088 6.6146-1.23256zm.0822 5.52586c-2.5217.038-7.2152.7287-10.0042 4.8891l5.6697 20.1521-5.6697-8.1142s-9.3217 3.4461-7.9088 17.7075l11.0313 5.8957-13.8456-4.6631s-2.2757 6.3843-.8628 12.5308l2.8349 2.2186-2.5473 14.0099s7.0745 10.0938 13.291 13.0444l1.972-26.5613-9.3262-4.9096s-.5701-3.9442-.2876-4.1907l13.8456 4.4372-.5547 12.5309.4109.2465v-.0206l2.1364 1.2531 2.0135-1.0887.657-.3903-.555-12.5309 13.846-4.4372c.282.2465-.288 4.1907-.288 4.1907l-9.326 4.9096 1.972 26.5613c6.217-2.9506 13.291-13.0444 13.291-13.0444l-2.547-14.0099 2.835-2.2186c1.413-6.1465-.863-12.5308-.863-12.5308l-13.846 4.6631 11.032-5.8957c1.413-14.2614-7.909-17.7075-7.909-17.7075l-5.649 8.1142 5.649-20.1521c-2.789-4.1604-7.483-4.8511-10.004-4.8891-.024 0-.038.0007-.062 0-.062-.0006-.1262 0-.1849 0h-.0616c-.0353 0-.086-.0006-.1233 0-.0244.0007-.0378 0-.0616 0zm27.9374 62.7571c0-.0001-5.2 9.7607-15.509 17.5637h8.936c3.75-4.1086 8.673-10.1578 9.696-14.6056zm-55.3204.0411-3.1019 2.9375c1.0226 4.4478 5.9454 10.4971 9.696 14.6057h8.9359c-10.3092-7.8031-15.53-17.5433-15.53-17.5432zm63.5174 2.917s-6.328 8.6138-12.963 14.6056h10.785c2.909-3.3684 5.558-6.9492 6.697-9.922zm-71.7138.0205-4.5194 4.6837c1.1388 2.9728 3.809 6.5535 6.7174 9.922h10.7848c-6.635-5.9918-12.9828-14.6057-12.9828-14.6057zm-13.9072 17.0297c-.0014.0115.0019.009 0 .0205-2.3973.0006-4.7932-.0006-7.1899 0 1.9924 1.8911 4.0562 3.7046 6.1833 5.4436.0198-.039.0216-.063.0411-.103-.0073.039-.0133.065-.0206.103 1.868-.088 3.7404-.167 5.6081-.246-.4501 2.635-.9054 5.275-1.3558 7.908-.4148.343-.6687.561-1.0066.843-.0171.013-.0438.027-.0616.041-.102.085-.2056.164-.3287.267.4191.352.6253.538 1.0477.883-.7491 4.375-1.4908 8.752-2.2391 13.127 2.0353-.424 4.0767-.834 6.1216-1.212.6626-4.188 1.33-8.384 1.9926-12.572.5455-.437.8137-.641 1.3558-1.068-.3712-.304-.5739-.484-.9039-.76-.0448-.038-.0933-.061-.1438-.103.0172-.11.0243-.219.0411-.329.3825-2.412.7679-4.839 1.1504-7.251 1.8707-.068 3.7361-.126 5.6081-.185.2287-1.604.4697-3.2044.6984-4.8071zm18.7757 0c-.4395 3.2371-.8752 6.4801-1.3147 9.7161-.4359.328-.6711.49-1.1093.822.0696.054.1467.099.2054.144.2399.186.4101.317.6985.534-.0096.072-.0309.134-.0411.205-.4293 3.166-.8437 6.346-1.2736 9.512 1.6426-.196 3.2839-.382 4.9301-.555.3775-3.151.7524-6.319 1.1299-9.47.0693-.05.1258-.081.1848-.123.3089-.228.5277-.378.8834-.637-.2551-.196-.4137-.335-.6163-.493-.0802-.062-.1664-.127-.2671-.206.3775-3.151.7524-6.298 1.1299-9.4491zm6.6968 0c-.1379 1.2394-.2729 2.4781-.4108 3.7181 1.5209-.029 3.0395-.058 4.5604-.082-.1584 1.698-.3141 3.396-.4725 5.094-.0128.139-.0282.272-.0411.411-.4227.302-.6425.456-1.0682.76.1089.079.2018.144.2876.206.2082.148.3941.265.6574.452-.2851 3.049-.577 6.111-.8628 9.162 1.6502-.125 3.2998-.249 4.9507-.35.2211-2.998.437-5.999.6574-8.997.4128-.289.6156-.433 1.0271-.719-.0396-.029-.0674-.036-.1027-.062-.3016-.218-.4911-.355-.8217-.596.0191-.257.0431-.524.0616-.78.1142-1.549.2351-3.094.3492-4.643 1.5219-.018 3.0386-.027 4.5604-.041.0624-1.178.1232-2.3557.1849-3.5331zm16.3107 0c-.7748 2.6011-1.5699 5.1961-2.3829 7.7851-.1604.513-.3313 1.029-.493 1.541-1.0497 3.313-2.1204 6.605-3.2252 9.902 1.6809-.082 3.3513-.149 5.0329-.206.4531-1.421.914-2.849 1.3558-4.273 1.6938-.035 3.3795-.045 5.074-.061.3728 1.402.7626 2.793 1.1503 4.19 1.6819-.005 3.3509.002 5.0329.021-.978-3.298-1.906-6.605-2.814-9.922-.144-.526-.289-1.054-.432-1.582-.6649-2.462-1.3272-4.922-1.9512-7.3951zm13.4348 0c.066 2.4811.139 4.9561.205 7.4361.013.45.009.906.021 1.356-.117.082-.216.141-.308.205-.216.15-.383.283-.658.473.405.273.601.403 1.007.678.079 2.93.168 5.862.246 8.792 1.643.038 3.269.083 4.91.144-.161-3.319-.311-6.623-.472-9.943-.001-.015 0-.047 0-.061.008.014.011.046.02.061 1.92 3.425 3.871 6.822 5.855 10.21 1.77.105 3.551.216 5.32.349-.008-.011-.013-.01-.02-.021-.283-3.04-.561-6.081-.843-9.12.373-.265.555-.393.925-.658-.041-.029-.086-.056-.123-.082-.351-.252-.564-.406-.945-.678-.024-.257-.038-.522-.062-.78-.26-2.79-.521-5.571-.781-8.3611h-4.498c.193 2.6481.402 5.3011.595 7.9501.036.486.067.972.103 1.458.018.253.023.508.041.76-.149-.26-.282-.52-.431-.78-.29-.507-.595-1.013-.884-1.52-1.482-2.609-2.936-5.235-4.375-7.8681zm16.475 0 .883 8.6071c.021.205.041.411.062.616-.343.254-.54.401-.863.637-.023.017-.037.023-.062.041.425.3.641.458 1.069.76.314 3.078.631 6.167.945 9.244 4.29.374 8.569.822 12.839 1.377-.189-1.31-.387-2.614-.576-3.924-2.596-.279-5.184-.535-7.785-.76-.181-1.513-.373-3.028-.555-4.54 2.171.14 4.344.305 6.512.473-.058-.41-.107-.822-.164-1.233-.048-.334-.097-.672-.144-1.006-.079-.56-.168-1.125-.246-1.685-2.136-.115-4.272-.212-6.41-.308-.18-1.512-.354-3.028-.534-4.54 2.434.05 4.859.102 7.293.164-.189-1.309-.366-2.6138-.555-3.9231zm17.543 0c-1.038.9444-2.078 1.8608-3.143 2.7731.41 2.724.823 5.452 1.233 8.176.045.294.079.589.123.883.054.361.11.728.164 1.089 1.411 1.055 2.818 2.107 4.211 3.184 2.672.31 5.347.643 8.012 1.007.377 2.145.752 4.305 1.13 6.45-2.01-.369-4.023-.717-6.04-1.048-.123-.743-.247-1.495-.369-2.239-1.983-.289-3.971-.565-5.958-.821.214 1.421.424 2.85.637 4.272 1.462 1.143 2.914 2.303 4.355 3.472 3.516.663 7.011 1.392 10.497 2.198 1.102-.728 2.207-1.478 3.287-2.239-.713-3.858-1.424-7.707-2.136-11.565-.003-.017-.018-.046-.021-.062-.053-.045-.111-.078-.164-.123-1.354-1.156-2.713-2.301-4.088-3.431-2.633-.261-5.273-.514-7.909-.739-.339-2.051-.669-4.092-1.007-6.143 1.899.075 3.811.163 5.711.247.127.724.243 1.433.37 2.157 1.892.117 3.779.24 5.67.37-.271-1.464-.532-2.914-.801-4.376 1.292-1.126 2.557-2.2912 3.8-3.4716-2.648-.0007-5.303.0007-7.95 0-.015-.0116-.026-.009-.041-.0205zm-44.4125 5.5461c.157.649.3121 1.305.4724 1.952.1287.52.259 1.042.3903 1.561.1799.716.3719 1.421.5547 2.136-1.0312.01-2.0714.028-3.1019.042.2135-.709.4259-1.427.6368-2.137.1564-.525.318-1.035.4725-1.561.1943-.66.3828-1.332.5752-1.993zm4.8891 16.578c-14.2413.097-26.8693.76-34.4291 1.253-5.3025 4.313-5.4643 11.709-5.4643 11.709 5.3546.331 21.2403 1.213 39.8934 1.315h.1844.185c18.526-.101 34.227-.979 39.688-1.315 0 0-.165-7.419-5.485-11.729-7.582-.492-20.095-1.137-34.203-1.233-.059.001-.125 0-.185 0-.059 0-.1247.001-.1844 0zm-30.7931 2.506h3.41c.3604.345.5234.528.8834.884-.0027 1.019.0029 2.04 0 3.06-.3868.369-.5791.549-.9655.904.4098 1.174.8134 2.335 1.212 3.513-.6049-.08-.916-.12-1.5202-.205-.3923-1.145-.7872-2.291-1.1914-3.431-.1677-.015-.2436-.006-.4109-.021-.0013 1.077.0014 2.149 0 3.226-.5649-.085-.8528-.138-1.4174-.226.0003-1.194-.0003-2.382 0-3.575-.1168-.12-.1711-.169-.2876-.287.1165-.102.1708-.164.2876-.267.0003-1.193-.0003-2.382 0-3.575zm6.7379 0h1.4174c-.0052 1.363-.0155 2.725-.0205 4.088.1185.134.19.194.3081.329-.1191.119-.1886.19-.3081.308-.003.821.003 1.644 0 2.465.6336.059.9482.069 1.5818.123.0033-.837-.0033-1.669 0-2.506-.1188-.135-.1692-.195-.2876-.329.1194-.123.1887-.183.3081-.308.0056-1.389-.0053-2.78 0-4.17h1.4174c-.0056 1.412-.0149 2.82-.0205 4.232.1165.138.1916.211.3081.349-.1175.125-.1903.184-.3081.308-.0043 1.093.0043 2.195 0 3.287-.3719.351-.5731.522-.945.863-.8599-.089-1.7092-.188-2.5678-.288-.361-.408-.5432-.606-.9038-1.006.0033-1.036.0169-2.087.0205-3.123-.1185-.131-.1897-.178-.3081-.308.1194-.117.189-.189.3081-.308.0046-1.337-.0046-2.669 0-4.006zm7.5185 0h2.5267c.3653.403.5383.599.9039 1.007-.002.605.002.915 0 1.52-.5662-.01-.8515-.01-1.4174-.021.001-.294-.001-.445 0-.739-.6128-.008-.9074-.011-1.5202-.021-.0033.88-.0172 1.75-.0205 2.63.1185.141.1897.227.3081.369-.1194.131-.1883.179-.3081.309-.0033.879.0033 1.77 0 2.65.6134.039.9067.046 1.5201.082.0024-.71.018-1.406.0206-2.116-.3868-.016-.5788-.024-.9655-.041.0026-.703-.0026-1.064 0-1.767.7939.025 1.5887.041 2.3829.062-.001.219.0007.336 0 .554.1188.144.1692.226.2876.37-.1194.135-.1678.196-.2876.329-.0036 1.158-.0166 2.314-.0205 3.472-.3686.382-.5558.569-.9244.944-.8504-.058-1.6979-.115-2.5473-.184-.3597-.423-.5442-.631-.9039-1.048.0043-1.118.0163-2.251.0206-3.369-.1165-.138-.1708-.212-.2876-.349.1178-.13.1701-.178.2876-.308.0043-1.117.0162-2.232.0205-3.349.3683-.388.5562-.59.9244-.986zm5.6286 0h3.369c.3623.418.5415.628.9039 1.048-.002 1.021.0019 2.039 0 3.061-.2195.342-.3349.522-.5547.862.2185.356.3362.527.5547.884-.0017 1.023.0016 2.037 0 3.061-.3647.406-.5599.625-.9244 1.027-1.1302-.04-2.2604-.106-3.3895-.165.0043-1.513.0159-3.026.0205-4.539-.1188-.143-.1688-.207-.2876-.35.1195-.138.1678-.21.2876-.349.0043-1.514.0162-3.026.0205-4.54zm6.4709 0h1.4585c.3214 1.248.6236 2.491.945 3.739.3181-1.248.6483-2.491.9655-3.739h1.4996c-.5802 2.117-1.164 4.232-1.7462 6.348 0 1.235.0003 2.462 0 3.697-.5754-.001-.8625.006-1.4379 0 .0006-1.238-.001-2.479 0-3.718-.5646-2.109-1.1196-4.217-1.6845-6.327zm11.8936 0h2.527c.372.413.553.619.925 1.027.002.598-.002.902 0 1.5-.567.009-.852.013-1.418.02-.001-.294.001-.445 0-.739-.609.006-.911.015-1.52.02.002.919-.002 1.835 0 2.753.12.141.189.21.308.349-.119.144-.189.206-.308.35.002.918.018 1.834.021 2.752.61-.022.91-.035 1.52-.061-.001-.317.001-.464 0-.781.567-.022.851-.037 1.417-.062.002.625-.002.937 0 1.562-.37.425-.554.64-.924 1.068-.842.046-1.684.088-2.527.123-.363-.397-.541-.605-.904-1.006-.003-1.189-.018-2.365-.02-3.554-.12-.139-.169-.21-.288-.35.119-.146.169-.223.288-.369-.003-1.187.002-2.367 0-3.554.36-.418.543-.633.903-1.048zm5.629 0h1.417c.006 1.463.015 2.913.021 4.376.119.132.168.217.288.349-.119.139-.169.209-.288.349.003.881-.003 1.749 0 2.63.697-.045 1.399-.093 2.095-.144.003.685-.002 1.04 0 1.725-1.169.103-2.341.181-3.512.267-.005-1.479.005-2.958 0-4.437-.118-.132-.191-.196-.309-.328.117-.143.192-.207.309-.35-.005-1.479-.016-2.958-.021-4.437zm5.69 0h1.418c.005 1.381-.005 2.749 0 4.129.119.124.188.186.308.308-.119.134-.169.216-.288.35.003.831-.003 1.654 0 2.485.634-.056.949-.084 1.582-.144-.003-.814.003-1.63 0-2.444-.119-.118-.189-.169-.308-.288.118-.134.19-.216.308-.349-.005-1.353-.016-2.694-.02-4.047h1.417c.005 1.326-.004 2.659 0 3.985.117.118.191.172.308.288-.116.129-.192.199-.308.329.003 1.026.017 2.034.02 3.061-.368.401-.555.618-.924 1.027-.858.102-1.708.196-2.568.287-.364-.336-.56-.517-.924-.863-.004-1.087.004-2.158 0-3.245-.12-.123-.189-.185-.308-.308.118-.138.189-.213.308-.35-.005-1.403-.015-2.808-.021-4.211zm6.594 0h3.369c.364.328.542.485.904.801v2.363c-.218.279-.316.413-.534.698.218.258.316.386.534.637v2.362c-.361.372-.522.564-.883.945-1.12.173-2.246.341-3.369.493-.003-1.282-.017-2.579-.021-3.862-.119-.109-.168-.156-.287-.267.118-.128.169-.201.287-.328-.003-1.283.004-2.559 0-3.842zm-54.7451 1.459c-.001.708.001 1.058 0 1.766.5861.036.8721.049 1.4585.083.0014-.728-.0016-1.081 0-1.808-.587-.015-.8717-.025-1.4585-.041zm57.6011 0c-.581.016-.857.026-1.438.041.001.721-.002 1.065 0 1.787.58-.034.858-.046 1.438-.082-.001-.703 0-1.044 0-1.746zm-37.7366.349c-.002.732.002 1.466 0 2.198.5821.011.8764.032 1.4585.041.0017-.736-.0016-1.482 0-2.219-.5817-.003-.8767-.015-1.4585-.02zm37.7566 2.855c-.579.052-.878.074-1.458.124.001.721-.002 1.086 0 1.807.579-.067.879-.093 1.458-.164-.001-.703.001-1.064 0-1.767zm-37.7566 1.171c-.002.732.002 1.466 0 2.198.5828.022.8758.023 1.4585.041.0017-.736-.0016-1.461 0-2.198-.5824-.013-.8761-.025-1.4585-.041zm-32.1283 6.245c.5795 4.802 1.6491 9.556 3.2046 14.236 3.1266 9.407 8.018 17.772 14.8522 24.98 2.9959 3.159 6.2689 5.995 9.8809 8.401-1.8502-2.287-3.7523-4.536-5.5259-6.881-8.5165-11.263-13.7863-23.889-15.7355-37.88-.1145-.822-.1972-1.645-.2876-2.466-2.8068-.155-5.0018-.296-6.3887-.39zm83.3199 0c-1.387.094-3.561.235-6.368.39-.09.821-.194 1.644-.308 2.466-1.949 13.991-7.219 26.617-15.736 37.88-1.773 2.345-3.675 4.594-5.526 6.881 3.612-2.406 6.885-5.242 9.881-8.401 6.835-7.208 11.726-15.573 14.852-24.98 1.556-4.68 2.626-9.434 3.205-14.236zm-14.071.657c-1.236.078-2.503.141-3.78.206-1.369 5.141-3.13 10.178-5.218 15.119-.718 1.7-1.498 3.368-2.28 5.136.263-.116.475-.181.657-.288 2.105-1.233 4.199-2.469 6.307-3.698.503-.293.763-.712.924-1.273 1.436-5.004 2.608-10.057 3.39-15.202zm-51.1305.226c-.7662.192-1.5193.386-2.2802.596-1.052.291-1.4835 1.077-1.1915 1.911.2805.8 1.0475 1.076 2.0543.78 1.0671-.313 2.1474-.611 3.2251-.883.6653-.168 1.3453-.275 2.0132-.411.3494 1.868.6813 3.637 1.0271 5.485-.2065.045-.3883.078-.5546.123-2.102.574-4.1979 1.126-6.286 1.746-1.0186.303-1.4461 1.067-1.1709 1.87.232.675 1.0355 1.237 2.1159.801.9675-.391 1.9887-.677 2.9991-.945 1.1923-.317 2.3999-.577 3.636-.863 1.0844 3.608 2.3587 7.013 4.2112 10.353-.5553-3.65-1.0869-7.117-1.6228-10.641 1.9508-.156 3.7487-.136 5.5464.165.8346.139 1.5224-.355 1.664-1.11.1491-.793-.3372-1.481-1.1915-1.643-.6415-.122-1.2803-.241-1.931-.267-1.4126-.056-2.847-.057-4.3755-.082-.0472-1.776-.0943-3.601-.1438-5.464 1.8202-.127 3.7169-.011 5.5875.369.9104.185 1.6209-.278 1.7872-1.088.0261-.127.0275-.249.0206-.37-5.4922-.094-10.6217-.251-15.1398-.432zm44.5975.124c-.867.037-1.744.07-2.629.102-2.766 7.047-6.469 13.627-10.744 19.927-.781 1.151-1.599 2.274-2.465 3.512.385-.051.677-.058.945-.123 1.758-.425 3.5-.872 5.259-1.294.501-.12.805-.4 1.047-.863 2.253-4.313 4.306-8.706 5.999-13.27.979-2.641 1.854-5.302 2.588-7.991zm-46.549 26.623c2.1333 4.184 4.6919 8.232 7.6007 12.079 1.0298 1.361 2.1193 2.726 3.2046 4.046 2.5382 2.676 5.015 4.505 7.3747 5.691.0898.043.1773.081.2671.123.0128.006.0282.015.041.02.1182.055.2318.113.3493.165.0135.006.0275.014.041.02.3931.171.7855.314 1.171.452.124.045.2466.082.3697.124.0129.004.0283.016.0411.02.1165.039.2333.067.3492.103.0093.003.0113.017.0206.02.3808.117.7569.221 1.1298.308.005.002.0156-.001.0206 0 .1168.028.233.058.3492.083.0109.002.0301-.003.0411 0 .1178.024.2324.04.3492.061.3692.069.7489.143 1.1093.185.1138.013.2361.01.3492.021.0066 0 .0139-.001.0205 0 .4755.044.9383.08 1.3971.082h.02c.115.001.216.002.329 0h.062c.142-.003.29-.014.431-.021.012 0 .008.001.021 0 .277-.014.551-.034.821-.061.013-.002.029.001.041 0 .272-.029.538-.083.802-.124.009-.001.031.002.041 0 .132-.02.259-.037.39-.061.004-.001.016 0 .02 0 .13-.024.242-.056.37-.082.005-.001.017 0 .021 0 .128-.027.264-.053.39-.083.01-.002.01.003.021 0 .222-.052.441-.124.657-.184 4.737-1.398 8.169-4.651 9.532-6.122.032-.039.07-.084.102-.123 1.248-1.516 2.526-3.086 3.719-4.663 2.909-3.847 5.467-7.895 7.6-12.079 0 0-25.5251 15.713-50.986 0z"/></svg>