<?xml version="1.0" standalone="no"?>
<!DOCTYPE svg PUBLIC "-//W3C//DTD SVG 20010904//EN"
 "http://www.w3.org/TR/2001/REC-SVG-20010904/DTD/svg10.dtd">
<svg version="1.0" xmlns="http://www.w3.org/2000/svg"
 width="1080.000000pt" height="1350.000000pt" viewBox="0 0 1080.000000 1350.000000"
 preserveAspectRatio="xMidYMid meet">

<g transform="translate(0.000000,1350.000000) scale(0.100000,-0.100000)"
fill="#000000" stroke="none">
<path d="M0 6750 l0 -6750 5400 0 5400 0 0 6750 0 6750 -5400 0 -5400 0 0
-6750z m5780 5979 c401 -43 762 -176 1205 -442 159 -96 376 -239 373 -247 -2
-4 -50 -48 -108 -98 -198 -172 -365 -344 -467 -483 -56 -76 -153 -231 -153
-244 0 -6 20 -21 44 -33 52 -26 44 5 81 -362 14 -140 53 -496 85 -790 32 -294
64 -589 71 -655 l13 -120 302 -310 c166 -170 312 -322 323 -337 l22 -27 -86
-172 c-47 -94 -85 -175 -85 -180 0 -5 448 -9 1060 -9 583 0 1060 -3 1060 -6 0
-3 -85 -105 -188 -227 -104 -122 -233 -276 -289 -342 -55 -66 -151 -180 -212
-253 l-112 -133 21 -112 c12 -61 30 -155 40 -207 11 -52 49 -259 85 -460 36
-201 81 -444 100 -540 51 -263 107 -582 102 -586 -2 -2 -165 49 -363 115 -430
142 -572 186 -580 179 -3 -4 0 -104 7 -225 29 -528 -25 -1088 -151 -1578 -95
-369 -220 -670 -407 -980 -153 -255 -295 -436 -508 -651 -311 -313 -686 -585
-1157 -842 -157 -86 -527 -262 -549 -262 -10 0 -266 101 -354 140 -139 62
-416 203 -545 278 -735 427 -1218 919 -1548 1577 -223 445 -354 964 -403 1599
-11 146 -6 787 7 899 5 38 3 47 -9 47 -8 0 -113 -30 -234 -66 -378 -114 -533
-158 -533 -152 0 6 101 575 134 758 20 107 38 209 40 225 8 51 56 322 87 493
l30 163 -48 55 c-26 31 -68 80 -93 109 -42 49 -228 269 -346 409 -28 34 -149
176 -268 316 l-216 255 916 3 915 2 -7 23 c-3 12 -37 87 -75 166 -38 79 -69
147 -69 151 0 3 126 132 280 285 153 153 277 281 275 285 -2 4 -37 10 -77 14
-85 8 -258 63 -337 108 -107 61 -271 181 -271 199 0 5 6 9 13 9 29 0 196 91
272 147 97 73 160 138 221 233 103 160 132 287 164 725 14 185 35 325 70 460
140 541 417 960 849 1282 342 256 671 379 1171 437 51 6 300 -3 410 -15z"/>
<path d="M5370 12590 c-418 -32 -815 -182 -1118 -423 -342 -271 -588 -623
-718 -1027 -71 -220 -95 -367 -124 -762 -28 -379 -110 -588 -306 -780 -61 -60
-96 -89 -199 -163 l-28 -20 99 -48 c124 -59 229 -86 364 -94 113 -6 261 9 317
32 18 8 33 11 33 7 0 -4 -38 -45 -85 -92 l-84 -85 59 -71 60 -72 -56 -38 -55
-38 -27 34 c-15 19 -39 48 -54 65 l-27 30 -256 -256 -256 -256 109 -226 110
-227 -886 -2 -886 -3 119 -140 c66 -77 151 -176 190 -221 38 -44 117 -136 175
-204 58 -68 121 -142 141 -164 19 -23 72 -85 118 -139 l82 -97 -15 -78 c-9
-42 -40 -216 -70 -387 -30 -170 -64 -359 -76 -420 -50 -270 -100 -555 -100
-575 0 -16 5 -20 18 -16 9 3 44 12 77 21 33 9 109 32 168 51 174 55 490 144
495 139 3 -2 -3 -87 -13 -187 -22 -235 -31 -705 -16 -908 61 -840 234 -1382
627 -1975 270 -405 641 -746 1164 -1067 193 -119 486 -269 670 -344 30 -12 99
-40 153 -62 l97 -41 118 56 c64 30 146 69 182 85 128 59 429 233 611 354 623
412 1032 855 1309 1419 154 313 261 633 324 967 61 320 96 677 96 970 0 170
-22 546 -39 673 -5 33 -7 62 -5 64 4 4 362 -106 508 -156 146 -50 419 -133
423 -129 7 6 -40 273 -156 881 -22 116 -54 289 -70 385 -17 96 -43 244 -59
327 l-29 152 116 133 c64 73 143 165 176 204 167 197 302 353 339 392 l40 42
-1037 0 c-570 0 -1037 2 -1037 4 0 2 50 104 111 225 61 122 109 228 107 235
-3 16 -468 506 -479 506 -4 0 -32 -27 -62 -60 l-55 -59 -40 29 c-22 16 -43 34
-47 40 -3 6 16 36 43 68 65 76 65 78 48 109 -9 17 -26 135 -45 308 -17 154
-42 384 -56 510 -14 127 -29 273 -35 325 -5 52 -21 203 -35 335 -14 132 -28
275 -32 319 -7 87 -5 85 -120 142 -29 15 -53 30 -53 36 0 11 107 189 172 286
91 135 206 268 369 426 135 131 160 159 148 170 -8 7 -66 44 -129 83 -394 241
-631 344 -955 417 -229 51 -458 71 -655 56z m162 -1080 c139 -23 290 -68 394
-115 l78 -36 -74 -74 c-41 -41 -81 -75 -88 -75 -8 0 -26 8 -40 19 -92 64 -276
132 -427 157 -315 51 -644 -64 -895 -316 -201 -200 -318 -457 -376 -825 l-8
-50 -7 45 c-19 113 3 316 47 450 67 201 164 357 306 496 180 175 392 287 621
329 113 21 336 18 469 -5z m-89 -244 c141 -42 309 -133 442 -239 64 -52 185
-169 185 -180 0 -8 -88 -51 -309 -149 -255 -113 -521 -214 -887 -338 -111 -37
-211 -73 -223 -79 -21 -12 -70 -98 -98 -175 -9 -23 -18 -81 -22 -131 l-6 -90
-64 -3 c-35 -2 -68 1 -72 5 -15 15 -22 333 -10 428 15 111 53 259 88 339 46
107 147 249 233 328 80 75 222 159 315 188 81 25 55 29 -34 5 -189 -51 -289
-106 -409 -227 -170 -171 -276 -396 -312 -661 -13 -95 -16 -305 -5 -425 l7
-83 170 2 c229 3 229 2 137 -182 -93 -187 -258 -335 -446 -400 -74 -25 -194
-41 -256 -33 l-48 7 64 66 c90 95 169 212 240 358 l62 128 -5 85 c-10 177 -4
433 14 525 23 120 60 244 102 333 41 90 149 256 206 318 124 135 335 257 505
295 126 27 314 21 436 -15z m951 -413 c3 -21 15 -128 26 -238 12 -110 29 -270
40 -355 33 -260 110 -969 110 -1006 0 -12 -13 -6 -52 22 -29 21 -109 78 -178
128 -69 49 -127 90 -128 92 -2 1 6 98 17 215 12 116 20 213 19 215 -2 1 -71
29 -153 62 -83 33 -190 77 -240 97 -152 63 -309 125 -311 122 -1 -1 -103 -200
-142 -278 -3 -6 346 -216 489 -294 l86 -47 7 -82 c3 -44 6 -169 6 -276 0 -236
14 -561 36 -848 9 -117 14 -215 12 -218 -13 -13 -738 454 -993 639 -183 134
-285 210 -285 215 0 2 20 55 45 117 49 122 90 282 99 392 4 37 9 92 12 122 5
46 3 53 -10 48 -15 -6 -124 49 -185 93 -18 14 -44 44 -58 68 -23 39 -25 51
-21 125 5 89 45 199 79 218 21 11 412 149 564 199 123 40 440 164 595 232 152
67 442 213 471 238 33 27 36 25 43 -17z m59 -1850 c9 -116 67 -667 72 -689 3
-12 -10 -47 -30 -85 -31 -58 -35 -61 -36 -34 0 17 -2 39 -4 50 -14 81 -31 552
-27 743 2 107 17 115 25 15z m-3147 -1300 c-4 -38 -9 -105 -13 -151 -5 -71 -8
-82 -22 -76 -65 28 -96 33 -197 34 l-111 0 -31 -217 c-17 -120 -52 -362 -77
-538 -25 -176 -48 -334 -51 -352 -4 -29 -10 -33 -62 -48 -31 -8 -101 -36 -155
-62 -54 -25 -100 -44 -102 -41 -3 2 0 31 5 64 6 32 24 160 41 284 16 124 34
250 39 280 22 128 90 594 90 618 0 13 -19 14 -127 9 -71 -3 -149 -12 -175 -20
-27 -8 -48 -12 -48 -9 0 4 7 68 15 142 8 74 15 138 15 143 0 4 219 7 486 7
l487 0 -7 -67z m458 9 c-15 -37 -27 -96 -33 -163 -6 -57 -27 -246 -46 -419
-36 -314 -47 -486 -32 -526 7 -21 4 -21 -100 -28 -60 -4 -141 -9 -181 -13
l-74 -6 22 42 c16 33 26 86 41 229 11 103 29 261 40 352 43 350 51 437 45 513
l-5 77 173 0 174 0 -24 -58z m942 6 c-3 -29 -8 -87 -12 -128 l-6 -76 -131 1
-132 0 -16 -215 c-42 -540 -43 -561 -27 -622 l15 -58 -166 -1 c-91 0 -174 -2
-183 -4 -23 -4 -23 7 3 56 16 33 27 103 54 362 18 177 36 359 40 405 l6 82
-88 0 c-49 0 -113 -6 -143 -14 -30 -8 -56 -13 -58 -11 -2 2 2 64 9 139 l13
136 414 0 414 0 -6 -52z m636 -105 c65 -220 138 -484 197 -709 27 -105 57
-208 65 -229 9 -21 15 -39 14 -40 -2 -2 -85 -5 -186 -7 -164 -4 -182 -3 -176
11 15 35 16 77 4 143 l-12 69 -146 -3 -146 -3 -18 -75 c-12 -54 -15 -83 -8
-104 6 -16 10 -33 10 -37 0 -5 -85 -9 -190 -9 -104 0 -190 2 -190 5 0 2 13 24
29 47 19 28 50 109 86 228 63 206 155 483 222 665 35 94 44 129 40 163 l-5 42
182 0 181 0 47 -157z m662 140 c17 -44 288 -536 333 -603 l23 -35 -1 70 c-1
139 -26 550 -33 568 -8 16 2 17 133 17 78 0 141 -2 141 -4 0 -3 -5 -17 -11
-33 -8 -20 -8 -93 1 -263 11 -236 34 -653 45 -809 l6 -83 -28 7 c-15 4 -83 13
-150 19 l-123 11 -61 110 c-34 61 -113 208 -176 328 -63 120 -116 217 -118
215 -7 -9 24 -598 33 -620 l11 -27 -152 6 c-84 3 -153 6 -154 7 -1 1 3 20 9
42 13 46 -12 1045 -26 1077 -8 16 3 17 142 17 134 0 151 -2 156 -17z m1385
-95 c7 -62 16 -130 21 -150 9 -41 2 -46 -33 -24 -34 22 -130 36 -244 36 -76 0
-103 -3 -103 -12 0 -7 5 -61 12 -121 13 -125 -3 -114 170 -120 65 -2 120 -6
123 -8 6 -7 35 -202 35 -240 0 -26 -2 -27 -37 -19 -49 11 -246 30 -251 25 -3
-2 2 -62 9 -132 l14 -127 150 -18 c83 -10 175 -16 206 -13 l56 6 15 -133 c8
-73 14 -134 13 -136 -1 -1 -42 6 -91 17 -103 23 -299 53 -499 76 -77 10 -141
18 -143 20 -1 1 2 23 8 49 8 35 6 90 -5 214 -14 164 -33 387 -56 687 -9 108
-17 161 -30 187 -11 21 -19 40 -19 43 0 3 150 5 333 5 l334 0 12 -112z m863
-75 c15 -104 25 -189 23 -191 -1 -2 -54 13 -116 33 -81 26 -119 44 -132 61
-17 22 -25 24 -113 24 -69 0 -94 -3 -94 -12 0 -21 29 -200 32 -202 2 -2 35
-12 73 -25 112 -35 285 -124 343 -176 35 -32 63 -69 86 -118 33 -67 38 -90 71
-347 20 -151 34 -288 31 -305 -10 -49 -44 -95 -82 -111 -36 -15 -41 -14 -218
45 -99 32 -208 67 -241 76 -84 24 -148 58 -190 102 -49 50 -61 82 -69 183 -4
47 -14 111 -21 143 -13 54 -12 59 3 53 167 -55 224 -80 237 -107 8 -15 15 -39
15 -52 0 -14 6 -29 13 -35 13 -10 257 -86 261 -80 3 3 -32 268 -40 306 -4 18
-25 33 -92 64 -253 118 -311 149 -361 194 -90 81 -99 103 -121 287 -24 202
-25 229 -1 275 48 94 75 101 407 102 l270 0 26 -187z m-2047 -1184 c746 -26
1051 -55 1162 -110 144 -70 269 -286 298 -515 l7 -51 -139 -22 c-431 -67 -815
-81 -2279 -81 -1350 0 -1565 7 -1999 62 -88 11 -188 23 -222 27 -34 4 -65 10
-69 14 -11 11 16 156 47 251 38 116 82 197 143 263 78 86 97 92 367 117 574
55 1834 76 2684 45z m-3100 -984 c55 -8 162 -19 239 -26 l139 -13 -4 -288 -4
-288 -30 -4 c-16 -3 -88 -12 -160 -21 -71 -9 -148 -18 -170 -21 l-40 -6 0 216
0 216 97 0 c53 0 99 -3 101 -8 3 -4 3 -28 0 -54 l-5 -47 -48 6 -47 5 -7 -102
c-4 -57 -3 -106 1 -110 8 -7 202 16 211 25 2 2 6 89 9 193 l5 190 -38 6 c-22
3 -108 10 -192 16 -84 6 -159 13 -166 16 -11 4 -16 -9 -22 -53 -7 -61 2 -571
12 -636 6 -36 8 -38 33 -32 58 15 403 65 446 65 8 0 16 -47 24 -127 11 -117
54 -394 66 -435 5 -13 -9 -21 -62 -39 -37 -12 -114 -41 -170 -65 -65 -27 -105
-39 -109 -32 -22 35 -104 421 -92 433 11 12 169 37 177 29 5 -5 11 -28 14 -52
l5 -42 -38 -6 c-63 -10 -63 -10 -36 -124 14 -56 27 -105 30 -107 2 -2 31 5 65
17 33 11 69 20 80 20 11 0 22 4 25 8 5 8 -50 411 -57 418 -2 2 -37 -3 -78 -11
-41 -8 -122 -24 -180 -36 -58 -11 -111 -24 -116 -27 -15 -9 16 -225 61 -428
35 -157 63 -264 70 -264 2 0 68 27 147 61 161 68 272 110 277 105 1 -2 -10
-30 -25 -61 l-28 -58 -159 -73 c-88 -40 -164 -78 -170 -84 -20 -20 112 -324
216 -496 52 -88 55 -96 62 -180 4 -55 3 -85 -3 -79 -40 42 -159 241 -232 391
-125 253 -221 563 -283 909 -60 333 -83 762 -61 1102 l8 113 56 -6 c31 -3 101
-12 156 -19z m4642 -12 c4 -16 7 -165 8 -333 0 -231 -4 -343 -18 -460 -66
-570 -164 -935 -354 -1314 -121 -242 -223 -397 -416 -635 -199 -245 -494 -498
-837 -718 -176 -113 -537 -297 -677 -343 -95 -32 -104 -34 -140 -21 -281 99
-686 300 -918 454 -72 48 -195 140 -192 144 2 1 42 -4 89 -11 72 -10 97 -19
150 -53 193 -125 440 -248 726 -362 l202 -81 180 80 c223 99 310 142 453 227
218 129 406 265 590 426 l67 59 -45 51 c-25 27 -72 85 -104 128 l-59 78 122
120 c67 67 125 121 129 121 14 0 177 -113 177 -123 0 -5 -26 -41 -57 -79 -32
-39 -65 -79 -74 -91 l-17 -21 -31 26 -31 26 40 48 c22 27 40 52 40 56 0 4 -12
15 -26 25 l-26 17 -70 -72 -70 -71 19 -31 c21 -36 126 -140 142 -140 13 0 142
141 236 259 69 88 88 121 66 121 -4 0 -75 44 -157 98 -82 54 -154 101 -160
105 -7 4 -42 -28 -87 -81 -41 -48 -122 -135 -181 -194 -101 -100 -107 -108
-95 -130 24 -45 93 -144 138 -197 l45 -54 -34 -29 c-72 -61 -401 -268 -426
-268 -9 0 -118 170 -112 174 2 1 23 12 47 25 48 26 43 28 83 -41 l21 -37 41
25 c23 13 48 29 56 33 12 8 10 16 -14 48 -15 21 -41 60 -58 86 -22 35 -35 46
-47 42 -10 -3 -68 -34 -130 -69 -61 -35 -170 -93 -241 -127 l-130 -63 1 -60
c1 -91 13 -171 24 -169 9 2 215 84 223 89 2 1 -5 18 -15 38 -18 38 -21 39 -84
20 -10 -3 -19 3 -23 12 -8 21 -17 14 82 57 l84 36 14 -36 c8 -19 28 -62 44
-96 17 -33 30 -62 30 -64 0 -15 -252 -122 -370 -158 l-75 -22 -7 38 c-4 21
-12 91 -17 156 -6 65 -14 141 -17 169 l-6 51 89 33 c132 49 350 165 496 263
32 21 62 37 67 35 9 -3 61 -77 131 -186 l41 -62 49 27 c27 16 47 33 45 38 -2
6 -42 68 -90 138 -47 71 -86 132 -86 136 0 3 64 72 143 151 78 80 182 193 232
253 49 59 94 107 100 107 7 0 32 -15 56 -34 65 -50 340 -226 353 -226 29 1
224 355 300 546 51 130 51 134 -9 157 -27 10 -102 40 -165 67 -169 70 -155 70
-175 8 -23 -70 -89 -226 -132 -312 -19 -37 -33 -69 -31 -71 21 -16 179 -107
182 -104 2 2 32 59 67 126 61 119 62 123 43 138 -10 8 -22 15 -25 15 -3 0 -18
-27 -34 -60 -36 -76 -45 -84 -79 -69 -14 7 -26 16 -26 20 0 11 81 161 98 181
7 9 11 22 7 27 -10 18 7 13 101 -28 78 -34 89 -42 86 -62 -1 -13 -48 -116
-103 -230 l-101 -206 -162 100 c-88 55 -165 103 -170 108 -6 5 22 75 72 176
44 93 102 226 128 297 l47 128 39 -6 c34 -6 215 -71 375 -135 29 -11 54 -17
57 -13 25 42 157 674 143 688 -10 11 -365 69 -373 62 -1 -2 -17 -91 -34 -198
-18 -107 -33 -198 -33 -203 -2 -8 128 -56 154 -57 11 0 21 24 37 93 30 123 29
127 -10 127 -52 0 -59 10 -52 64 l7 48 36 -6 c20 -3 62 -8 95 -12 l58 -7 -6
-51 c-14 -105 -76 -380 -89 -393 -3 -3 -71 22 -152 56 -80 33 -157 64 -171 67
-13 3 -24 10 -24 16 0 5 11 53 24 106 24 95 45 219 66 376 6 44 12 82 15 84 3
3 107 -11 232 -30 126 -20 231 -33 235 -29 25 22 34 691 10 712 -10 8 -388
-24 -384 -33 1 -5 2 -93 2 -197 l0 -189 33 -6 c17 -3 62 -8 98 -12 l65 -6 3
106 2 106 -50 0 -51 0 0 50 0 50 96 0 96 0 -4 -209 c-2 -115 -6 -212 -9 -216
-4 -3 -86 6 -183 20 -97 14 -181 25 -186 25 -6 0 -10 109 -10 288 l0 289 203
22 c111 12 234 26 272 30 39 5 76 9 82 10 7 0 16 -11 20 -26z m-1522 -93 c55
-11 138 -32 185 -47 89 -29 241 -102 247 -119 2 -5 -63 -42 -144 -81 -276
-134 -710 -428 -1083 -732 -672 -549 -1419 -1353 -1625 -1748 -15 -29 -30 -53
-34 -53 -12 0 -72 98 -96 156 -54 133 -76 423 -46 609 21 135 70 314 122 444
146 364 346 653 652 939 401 375 840 591 1327 652 115 14 378 4 495 -20z m530
-284 c46 -82 75 -181 83 -283 10 -127 -3 -370 -28 -503 -72 -393 -311 -821
-645 -1156 -152 -153 -289 -257 -498 -382 -326 -194 -607 -301 -896 -343 -127
-19 -175 -21 -371 -16 -271 7 -379 27 -502 94 -85 47 -87 52 -38 130 133 211
350 461 763 880 310 314 481 476 667 633 74 63 98 83 254 216 386 329 1089
807 1165 792 8 -2 29 -29 46 -62z m-3275 -1363 c-8 -35 -27 -215 -33 -307 -2
-37 -4 -33 -64 87 -89 179 -90 164 9 213 46 23 86 42 89 43 4 0 3 -16 -1 -36z
m1873 -1485 c4 -57 10 -156 13 -220 l7 -117 -189 64 c-246 82 -318 111 -466
187 l-123 63 105 3 c103 3 106 2 190 -37 84 -39 328 -121 359 -121 14 0 16 12
13 81 l-4 81 -26 -8 c-39 -10 -59 -8 -139 17 l-72 23 151 38 c83 21 153 40
156 43 15 15 20 -4 25 -97z"/>
<path d="M4218 9620 c-46 -100 -117 -220 -185 -310 -28 -39 -49 -70 -45 -70 4
0 30 13 58 29 83 48 148 129 210 260 30 64 61 128 69 144 l14 27 -43 0 -43 0
-35 -80z"/>
<path d="M4981 9335 c-13 -55 -39 -140 -57 -189 -19 -49 -31 -93 -27 -97 29
-29 337 -251 478 -344 189 -125 418 -265 395 -242 -39 39 -327 278 -530 441
l-225 180 -5 175 -5 176 -24 -100z"/>
<path d="M5116 7444 c-25 -83 -96 -344 -96 -353 0 -7 33 -11 95 -11 52 0 95 3
95 8 0 21 -74 358 -80 366 -5 4 -11 0 -14 -10z"/>
<path d="M4707 6133 c-4 -87 -7 -202 -7 -256 l0 -99 135 4 c171 4 178 9 183
128 4 74 2 80 -22 105 l-26 26 20 26 c16 20 20 41 20 98 0 69 -2 75 -31 99
-29 25 -36 26 -148 26 l-118 0 -6 -157z m201 13 c4 -47 -1 -52 -55 -60 l-43
-5 0 55 0 55 48 -3 c47 -3 47 -3 50 -42z m0 -210 c4 -56 -5 -66 -60 -66 l-38
0 0 61 0 60 48 -3 47 -3 3 -49z"/>
<path d="M5095 6270 c3 -11 35 -80 71 -154 l64 -135 0 -101 0 -100 50 0 50 0
0 93 c0 92 1 95 56 218 92 203 86 189 70 195 -7 3 -35 4 -61 2 l-48 -3 -35
-92 c-20 -51 -38 -91 -40 -88 -3 3 -15 33 -28 68 -45 126 -37 117 -99 117 -52
0 -56 -2 -50 -20z"/>
<path d="M5805 6278 c-52 -28 -55 -40 -55 -246 l0 -194 28 -27 c19 -19 43 -30
75 -35 114 -17 197 26 197 104 0 21 3 45 6 53 4 12 -6 16 -50 19 l-56 3 0 -32
c0 -52 -37 -77 -74 -50 -15 11 -18 34 -22 153 -6 158 -2 168 58 162 30 -3 33
-6 36 -41 l3 -38 52 3 52 3 0 46 c-1 56 -25 96 -70 115 -40 17 -151 18 -180 2z"/>
<path d="M4322 6266 c-54 -25 -62 -60 -62 -261 0 -107 4 -184 11 -197 16 -30
71 -48 146 -48 133 0 166 41 161 199 l-3 86 -77 3 c-77 3 -78 3 -78 -22 0 -13
-3 -31 -6 -40 -5 -13 1 -16 25 -16 30 0 31 -1 31 -44 0 -52 -16 -69 -62 -64
l-33 3 0 160 0 160 45 0 c41 0 45 -2 48 -27 3 -23 8 -27 50 -30 26 -3 49 -3
51 -1 2 2 4 24 4 49 0 35 -5 51 -25 71 -22 22 -36 26 -109 29 -61 3 -93 0
-117 -10z"/>
<path d="M3864 6263 l-31 -4 -8 -208 c-9 -275 -8 -277 130 -288 90 -7 140 12
159 59 9 22 16 105 21 241 l7 208 -54 -3 -53 -3 -7 -194 c-5 -118 -12 -199
-19 -207 -14 -17 -50 -18 -72 -1 -15 11 -16 28 -7 201 6 104 9 190 8 191 -9 7
-47 11 -74 8z"/>
<path d="M6178 6070 c-1 -110 -2 -221 -3 -247 l0 -46 118 -3 117 -4 0 45 0 45
-65 0 -65 0 0 205 0 205 -50 0 -50 0 -2 -200z"/>
<path d="M6527 6263 c-4 -3 -7 -96 -7 -206 0 -170 3 -203 17 -228 24 -41 70
-59 148 -59 71 0 117 17 135 49 11 22 13 196 3 344 l-6 97 -49 0 -48 0 0 -188
c0 -133 -4 -192 -12 -200 -16 -16 -53 -15 -66 1 -5 6 -13 95 -17 197 -4 122
-11 187 -18 192 -15 10 -71 10 -80 1z"/>
<path d="M3464 6253 l-42 -4 -6 -62 c-3 -34 -8 -114 -11 -177 -3 -63 -8 -145
-11 -182 l-5 -68 49 0 c47 0 50 1 56 31 3 17 6 58 6 90 0 32 4 60 9 63 22 14
40 -11 65 -94 l26 -90 55 0 55 0 -35 97 c-20 53 -34 97 -33 97 26 9 45 29 55
57 15 43 16 174 2 201 -22 41 -92 54 -235 41z m146 -141 c0 -68 -11 -82 -62
-82 l-38 0 0 70 0 70 50 0 50 0 0 -58z"/>
<path d="M6950 6015 l0 -245 128 0 c70 0 132 4 138 8 23 15 34 53 34 121 0 61
-3 72 -24 88 l-24 19 25 24 c24 23 25 28 18 95 -7 78 -24 112 -58 119 -12 3
-70 7 -129 10 l-108 6 0 -245z m178 146 c9 -5 12 -25 10 -57 l-3 -49 -42 -3
-43 -3 0 60 0 61 33 0 c17 0 38 -4 45 -9z m20 -259 l3 -53 -48 3 c-48 3 -48 3
-51 42 -5 59 2 68 50 64 l43 -3 3 -53z"/>
</g>
</svg>
