<?xml version="1.0" encoding="UTF-8" standalone="no"?>
<!DOCTYPE svg PUBLIC "-//W3C//DTD SVG 1.1//EN" "http://www.w3.org/Graphics/SVG/1.1/DTD/svg11.dtd">
<!-- Created with Vectornator (http://vectornator.io/) -->
<svg height="100%" stroke-miterlimit="10" style="fill-rule:nonzero;clip-rule:evenodd;stroke-linecap:round;stroke-linejoin:round;" version="1.1" viewBox="0 0 200 200" width="100%" xml:space="preserve" xmlns="http://www.w3.org/2000/svg" xmlns:xlink="http://www.w3.org/1999/xlink">
<defs/>
<g id="Capa-1">
<path d="M99.5583 6.77904C97.7279 6.80577 94.9416 7.0705 92.0193 8.17592C88.3116 9.579 85.3349 11.9145 83.186 15.1193L81.1729 18.1184L83.412 26.1094C82.1145 27.011 80.5878 28.2975 79.1392 30.0741C77.221 32.4275 75.7994 35.1958 74.9075 38.2705C74.6844 39.04 74.488 39.8178 74.3323 40.6329L74.1474 40.5713L71.5591 47.8433C71.4224 48.231 70.7199 50.3302 70.2443 53.3281C69.5933 57.4321 69.6714 61.2727 70.4703 64.7497L71.0866 67.4613L71.2715 67.5845L67.2451 71.3849L64.9239 68.2419L50.5031 83.1557L52.0232 87.1204L45.5524 87.1204L41.6493 87.1204L41.6493 87.1614L17.3682 87.1614L35.9591 104.807C36.7593 105.567 37.6107 106.344 38.4858 107.129L42.964 111.155L42.3888 114.462L42.2245 115.428L42.1423 115.921L38.2598 138.723L52.167 135.826C52.8356 140.911 53.9876 145.939 55.5976 150.781C58.0038 158.022 61.3955 164.723 65.6839 170.748L66.7932 172.392L66.9165 172.392C67.0247 172.533 67.1372 172.684 67.2451 172.823C77.721 186.348 88.8089 193.222 100.195 193.222C102.911 193.222 105.654 192.82 108.35 192.03L108.576 191.969C117.87 189.181 125.07 182.269 129.468 176.973L129.509 176.911L129.571 176.85C129.787 176.564 129.997 176.257 130.228 175.946C132.346 173.277 133.641 171.189 133.946 170.687L133.967 170.666C138.255 164.641 141.647 157.918 144.053 150.679C145.681 145.781 146.839 140.702 147.504 135.559L150.401 136.36L150.503 136.381C151.079 136.51 151.538 136.627 151.983 136.73L156.255 137.716L159.932 135.292C161.115 134.511 162.305 133.706 163.466 132.889L168.827 129.109L166.403 116.003L164.287 104.581L182.632 87.1614L152.414 87.1409L152.373 87.1204L147.977 87.1204L149.497 83.1557L135.076 68.2419L132.755 71.3849L128.667 67.5229L128.749 67.4613L129.386 64.7497C130.185 61.2733 130.263 57.4321 129.612 53.3281C129.126 50.2629 128.361 48.0829 128.277 47.8433L125.709 40.5713L125.524 40.6329C125.368 39.8179 125.172 39.0404 124.949 38.2705C124.057 35.1958 122.636 32.4276 120.717 30.0741C119.269 28.2975 117.742 27.0109 116.444 26.1094L118.663 18.1184L116.67 15.1193C114.522 11.9151 111.545 9.579 107.837 8.17592C104.916 7.07082 102.127 6.80609 100.298 6.77904L100.216 6.77904C100.125 6.77706 100.036 6.77905 99.9486 6.77904L99.9076 6.77904C99.8211 6.77904 99.7303 6.77739 99.6405 6.77904L99.5583 6.77904ZM99.5994 9.49064L99.6816 9.49064C99.7529 9.48932 99.8343 9.49063 99.9076 9.49064L99.9486 9.49064C100.022 9.49064 100.098 9.48899 100.175 9.49064L100.257 9.49064C101.868 9.5144 104.319 9.75766 106.871 10.7232C110.04 11.9223 112.583 13.9144 114.41 16.6394L115.705 18.5909L113.26 27.342C114.557 28.0366 116.662 29.4215 118.601 31.7997C120.288 33.8683 121.551 36.3089 122.34 39.0306C122.817 40.6749 123.133 42.4396 123.264 44.2895L124.045 44.0224L125.709 48.7677C125.821 49.0875 128.457 56.6409 126.736 64.1334L126.325 65.9001L124.497 67.338L125.195 71.1795L126.325 69.043L131.194 73.6856L133.104 75.4934L135.343 72.4531L146.333 83.7925L145.183 86.8328C144.819 87.7818 144.317 88.776 143.724 89.832L151.49 89.832L151.51 89.873L175.812 89.873L162.172 102.835C161.896 103.097 161.622 103.362 161.35 103.616L163.117 113.291L165.828 127.897L161.884 130.67C160.747 131.47 159.593 132.266 158.433 133.033L155.742 134.799L152.599 134.06C152.15 133.956 151.66 133.862 151.079 133.731L151.058 133.731L145.162 132.088C144.627 138.13 143.389 144.087 141.485 149.816C139.161 156.81 135.867 163.294 131.728 169.105L131.666 169.228C131.467 169.559 130.21 171.612 128.071 174.302C127.837 174.618 127.614 174.914 127.393 175.206L127.373 175.227L127.373 175.247C123.214 180.255 116.439 186.767 107.796 189.36L107.57 189.421C105.128 190.137 102.652 190.49 100.195 190.49C89.6942 190.49 79.3355 184.005 69.4021 171.18L69.3816 171.159C69.0734 170.761 68.7588 170.35 68.4571 169.947C68.3895 169.857 68.3194 169.771 68.2517 169.68L68.2312 169.68L67.923 169.208C63.7834 163.396 60.5103 156.892 58.186 149.898C56.3216 144.29 55.0824 138.471 54.5294 132.56C53.7995 132.706 53.1025 132.848 52.4135 132.992L41.6082 135.251L44.9772 115.51L45.0799 114.914L45.9016 110.107L41.0536 105.773C40.9869 105.714 40.8071 105.567 40.8071 105.567L40.2935 105.095C39.4415 104.331 38.6102 103.577 37.8284 102.835L24.1883 89.873L43.909 89.873L43.909 89.832L47.2369 89.832L56.255 89.832C55.6646 88.7796 55.1803 87.7811 54.817 86.8328L53.6666 83.7925L64.6568 72.4531L66.8959 75.4934L73.6749 69.043L74.702 70.9946L75.3594 67.338L73.5311 65.9001L73.1203 64.1334C71.3984 56.6409 74.0147 49.0864 74.1269 48.7677L75.8113 44.0224L76.5919 44.2895C76.7229 42.4396 77.0392 40.6749 77.5163 39.0306C78.3057 36.3089 79.5483 33.8683 81.2345 31.7997C83.1732 29.4218 85.2993 28.0366 86.5961 27.342L84.131 18.5909L85.4457 16.6394C87.2728 13.9141 89.8166 11.922 92.9848 10.7232C95.5382 9.75733 97.9865 9.5144 99.5994 9.49064ZM99.6816 15.0165C97.1599 15.0545 92.4664 15.7452 89.6774 19.9056L95.3471 40.0577L89.6774 31.9435C89.6774 31.9435 80.3557 35.3896 81.7686 49.651L92.7999 55.5467L78.9543 50.8836C78.9543 50.8836 76.6786 57.2679 78.0915 63.4144L80.9264 65.633L78.3791 79.6429C78.3791 79.6429 85.4536 89.7367 91.6701 92.6873L93.6421 66.126L84.3159 61.2164C84.3159 61.2164 83.7458 57.2722 84.0283 57.0257L97.8739 61.4629L97.3192 73.9938L97.7301 74.2403L97.7301 74.2197L99.8665 75.4728L101.88 74.3841L102.537 73.9938L101.982 61.4629L115.828 57.0257C116.11 57.2722 115.54 61.2164 115.54 61.2164L106.214 66.126L108.186 92.6873C114.403 89.7367 121.477 79.6429 121.477 79.6429L118.93 65.633L121.765 63.4144C123.178 57.2679 120.902 50.8836 120.902 50.8836L107.056 55.5467L118.088 49.651C119.501 35.3896 110.179 31.9435 110.179 31.9435L104.53 40.0577L110.179 19.9056C107.39 15.7452 102.696 15.0545 100.175 15.0165C100.151 15.0165 100.137 15.0172 100.113 15.0165C100.051 15.0159 99.9868 15.0165 99.9281 15.0165L99.8665 15.0165C99.8312 15.0165 99.7805 15.0159 99.7432 15.0165C99.7188 15.0172 99.7054 15.0165 99.6816 15.0165ZM127.619 77.7736C127.619 77.7735 122.419 87.5343 112.11 95.3373L121.046 95.3373C124.796 91.2287 129.719 85.1795 130.742 80.7317L127.619 77.7736ZM72.2986 77.8147L69.1967 80.7522C70.2193 85.2 75.1421 91.2493 78.8927 95.3579L87.8286 95.3579C77.5194 87.5548 72.2986 77.8146 72.2986 77.8147ZM135.816 80.7317C135.816 80.7317 129.488 89.3455 122.853 95.3373L133.638 95.3373C136.547 91.9689 139.196 88.3881 140.335 85.4153L135.816 80.7317ZM64.1022 80.7522L59.5828 85.4359C60.7216 88.4087 63.3918 91.9894 66.3002 95.3579L77.085 95.3579C70.45 89.3661 64.1022 80.7522 64.1022 80.7522ZM50.195 97.7819C50.1936 97.7934 50.1969 97.7909 50.195 97.8024C47.7977 97.803 45.4018 97.8018 43.0051 97.8024C44.9975 99.6935 47.0613 101.507 49.1884 103.246C49.2082 103.207 49.21 103.183 49.2295 103.143C49.2222 103.182 49.2162 103.208 49.2089 103.246C51.0769 103.158 52.9493 103.079 54.817 103C54.3669 105.635 53.9116 108.275 53.4612 110.908C53.0464 111.251 52.7925 111.469 52.4546 111.751C52.4375 111.764 52.4108 111.778 52.393 111.792C52.291 111.877 52.1874 111.956 52.0643 112.059C52.4834 112.411 52.6896 112.597 53.112 112.942C52.3629 117.317 51.6212 121.694 50.8729 126.069C52.9082 125.645 54.9496 125.235 56.9945 124.857C57.6571 120.669 58.3245 116.473 58.9871 112.285C59.5326 111.848 59.8008 111.644 60.3429 111.217C59.9717 110.913 59.769 110.733 59.439 110.457C59.3942 110.419 59.3457 110.396 59.2952 110.354C59.3124 110.244 59.3195 110.135 59.3363 110.025C59.7188 107.613 60.1042 105.186 60.4867 102.774C62.3574 102.706 64.2228 102.648 66.0948 102.589C66.3235 100.985 66.5645 99.3846 66.7932 97.7819L50.195 97.7819ZM68.9707 97.7819C68.5312 101.019 68.0955 104.262 67.656 107.498C67.2201 107.826 66.9849 107.988 66.5467 108.32C66.6163 108.374 66.6934 108.419 66.7521 108.464C66.992 108.65 67.1622 108.781 67.4506 108.998C67.441 109.07 67.4197 109.132 67.4095 109.203C66.9802 112.369 66.5658 115.549 66.1359 118.715C67.7785 118.519 69.4198 118.333 71.066 118.16C71.4435 115.009 71.8184 111.841 72.1959 108.69C72.2652 108.64 72.3217 108.609 72.3807 108.567C72.6896 108.339 72.9084 108.189 73.2641 107.93C73.009 107.734 72.8504 107.595 72.6478 107.437C72.5676 107.375 72.4814 107.31 72.3807 107.231C72.7582 104.08 73.1331 100.933 73.5106 97.7819L68.9707 97.7819ZM75.6675 97.7819C75.5296 99.0213 75.3946 100.26 75.2567 101.5C76.7776 101.471 78.2962 101.442 79.8171 101.418C79.6587 103.116 79.503 104.814 79.3446 106.512C79.3318 106.651 79.3164 106.784 79.3035 106.923C78.8808 107.225 78.661 107.379 78.2353 107.683C78.3442 107.762 78.4371 107.827 78.5229 107.889C78.7311 108.037 78.917 108.154 79.1803 108.341C78.8952 111.39 78.6033 114.452 78.3175 117.503C79.9677 117.378 81.6173 117.254 83.2682 117.153C83.4893 114.155 83.7052 111.154 83.9256 108.156C84.3384 107.867 84.5412 107.723 84.9527 107.437C84.9131 107.408 84.8853 107.401 84.85 107.375C84.5484 107.157 84.3589 107.02 84.0283 106.779C84.0474 106.522 84.0714 106.255 84.0899 105.999C84.2041 104.45 84.325 102.905 84.4391 101.356C85.961 101.338 87.4777 101.329 88.9995 101.315C89.0619 100.137 89.1227 98.9593 89.1844 97.7819L75.6675 97.7819ZM91.9782 97.7819C91.2034 100.383 90.4083 102.978 89.5953 105.567C89.4349 106.08 89.264 106.596 89.1023 107.108C88.0526 110.421 86.9819 113.713 85.8771 117.01C87.558 116.928 89.2284 116.861 90.91 116.804C91.3631 115.383 91.824 113.955 92.2658 112.531C93.9596 112.496 95.6453 112.486 97.3398 112.47C97.7126 113.872 98.1024 115.263 98.4901 116.66C100.172 116.655 101.841 116.662 103.523 116.681C102.545 113.383 101.617 110.076 100.709 106.759C100.565 106.233 100.42 105.705 100.277 105.177C99.6121 102.715 98.9498 100.255 98.3258 97.7819L91.9782 97.7819ZM105.413 97.7819C105.479 100.263 105.552 102.738 105.618 105.218C105.631 105.668 105.627 106.124 105.639 106.574C105.522 106.656 105.423 106.715 105.331 106.779C105.115 106.929 104.948 107.062 104.673 107.252C105.078 107.525 105.274 107.655 105.68 107.93C105.759 110.86 105.848 113.792 105.926 116.722C107.569 116.76 109.195 116.805 110.836 116.866C110.675 113.547 110.525 110.243 110.364 106.923C110.363 106.908 110.364 106.876 110.364 106.862C110.372 106.876 110.375 106.908 110.384 106.923C112.304 110.348 114.255 113.745 116.239 117.133C118.009 117.238 119.79 117.349 121.559 117.482C121.551 117.471 121.546 117.472 121.539 117.461C121.256 114.421 120.978 111.38 120.696 108.341C121.069 108.076 121.251 107.948 121.621 107.683C121.58 107.654 121.535 107.627 121.498 107.601C121.147 107.349 120.934 107.195 120.553 106.923C120.529 106.666 120.515 106.401 120.491 106.143C120.231 103.353 119.97 100.572 119.71 97.7819L115.212 97.7819C115.405 100.43 115.614 103.083 115.807 105.732C115.843 106.218 115.874 106.704 115.91 107.19C115.928 107.443 115.933 107.698 115.951 107.95C115.802 107.69 115.669 107.43 115.52 107.17C115.23 106.663 114.925 106.157 114.636 105.65C113.154 103.041 111.7 100.415 110.261 97.7819L105.413 97.7819ZM121.888 97.7819L122.771 106.389C122.792 106.594 122.812 106.8 122.833 107.005C122.49 107.259 122.293 107.406 121.97 107.642C121.947 107.659 121.933 107.665 121.908 107.683C122.333 107.983 122.549 108.141 122.977 108.443C123.291 111.521 123.608 114.61 123.922 117.687C128.212 118.061 132.491 118.509 136.761 119.064C136.572 117.754 136.374 116.45 136.185 115.14C133.589 114.861 131.001 114.605 128.4 114.38C128.219 112.867 128.027 111.352 127.845 109.84C130.016 109.98 132.189 110.145 134.357 110.313C134.299 109.903 134.25 109.491 134.193 109.08C134.145 108.746 134.096 108.408 134.049 108.074C133.97 107.514 133.881 106.949 133.803 106.389C131.667 106.274 129.531 106.177 127.393 106.081C127.213 104.569 127.039 103.053 126.859 101.541C129.293 101.591 131.718 101.643 134.152 101.705C133.963 100.396 133.786 99.0912 133.597 97.7819L121.888 97.7819ZM139.431 97.7819C138.393 98.7263 137.353 99.6427 136.288 100.555C136.698 103.279 137.111 106.007 137.521 108.731C137.566 109.025 137.6 109.32 137.644 109.614C137.698 109.975 137.754 110.342 137.808 110.703C139.219 111.758 140.626 112.81 142.019 113.887C144.691 114.197 147.366 114.53 150.031 114.894C150.408 117.039 150.783 119.199 151.161 121.344C149.151 120.975 147.138 120.627 145.121 120.296C144.998 119.553 144.874 118.801 144.752 118.057C142.769 117.768 140.781 117.492 138.794 117.236C139.008 118.657 139.218 120.086 139.431 121.508C140.893 122.651 142.345 123.811 143.786 124.98C147.302 125.643 150.797 126.372 154.283 127.178C155.385 126.45 156.49 125.7 157.57 124.939C156.857 121.081 156.146 117.232 155.434 113.374C155.431 113.357 155.416 113.328 155.413 113.312C155.36 113.267 155.302 113.234 155.249 113.189C153.895 112.033 152.536 110.888 151.161 109.758C148.528 109.497 145.888 109.244 143.252 109.019C142.913 106.968 142.583 104.927 142.245 102.876C144.144 102.951 146.056 103.039 147.956 103.123C148.083 103.847 148.199 104.556 148.326 105.28C150.218 105.397 152.105 105.52 153.996 105.65C153.725 104.186 153.464 102.736 153.195 101.274C154.487 100.148 155.752 98.9828 156.995 97.8024C154.347 97.8017 151.692 97.8031 149.045 97.8024C149.03 97.7908 149.019 97.7934 149.004 97.7819L139.431 97.7819ZM95.0185 103.328C95.1755 103.977 95.3306 104.633 95.4909 105.28C95.6196 105.8 95.7499 106.322 95.8812 106.841C96.0611 107.557 96.2531 108.262 96.4359 108.977C95.4047 108.987 94.3645 109.005 93.334 109.019C93.5475 108.31 93.7599 107.592 93.9708 106.882C94.1272 106.357 94.2888 105.847 94.4433 105.321C94.6376 104.661 94.8261 103.989 95.0185 103.328ZM99.9076 119.906C85.6663 120.003 73.0383 120.666 65.4785 121.159C60.176 125.472 60.0142 132.868 60.0142 132.868C65.3688 133.199 81.2545 134.081 99.9076 134.183C99.9673 134.183 100.033 134.183 100.092 134.183C100.152 134.183 100.218 134.183 100.277 134.183C118.803 134.082 134.504 133.204 139.965 132.868C139.965 132.868 139.8 125.449 134.48 121.139C126.898 120.647 114.385 120.002 100.277 119.906C100.218 119.907 100.152 119.906 100.092 119.906C100.033 119.906 99.9673 119.907 99.9076 119.906ZM69.1145 122.412C70.248 122.412 71.3911 122.412 72.5245 122.412C72.8849 122.757 73.0479 122.94 73.4079 123.296C73.4052 124.315 73.4108 125.336 73.4079 126.356C73.0211 126.725 72.8288 126.905 72.4424 127.26C72.8522 128.434 73.2558 129.595 73.6544 130.773C73.0495 130.693 72.7384 130.653 72.1342 130.568C71.7419 129.423 71.347 128.277 70.9428 127.137C70.7751 127.122 70.6992 127.131 70.5319 127.116C70.5306 128.193 70.5333 129.265 70.5319 130.342C69.967 130.257 69.6791 130.204 69.1145 130.116C69.1148 128.922 69.1142 127.734 69.1145 126.541C68.9977 126.421 68.9434 126.372 68.8269 126.254C68.9434 126.152 68.9977 126.09 69.1145 125.987C69.1148 124.794 69.1142 123.605 69.1145 122.412ZM75.8524 122.412L77.2698 122.412C77.2646 123.775 77.2543 125.137 77.2493 126.5C77.3678 126.634 77.4393 126.694 77.5574 126.829C77.4383 126.948 77.3688 127.019 77.2493 127.137C77.2463 127.958 77.2523 128.781 77.2493 129.602C77.8829 129.661 78.1975 129.671 78.8311 129.725C78.8344 128.888 78.8278 128.056 78.8311 127.219C78.7123 127.084 78.6619 127.024 78.5435 126.89C78.6629 126.767 78.7322 126.707 78.8516 126.582C78.8572 125.193 78.8463 123.802 78.8516 122.412L80.269 122.412C80.2634 123.824 80.2541 125.232 80.2485 126.644C80.365 126.782 80.4401 126.855 80.5566 126.993C80.4391 127.118 80.3663 127.177 80.2485 127.301C80.2442 128.394 80.2528 129.496 80.2485 130.588C79.8766 130.939 79.6754 131.11 79.3035 131.451C78.4436 131.362 77.5943 131.263 76.7357 131.163C76.3747 130.755 76.1925 130.557 75.8319 130.157C75.8352 129.121 75.8488 128.07 75.8524 127.034C75.7339 126.903 75.6627 126.856 75.5443 126.726C75.6637 126.609 75.7333 126.537 75.8524 126.418C75.857 125.081 75.8478 123.749 75.8524 122.412ZM83.3709 122.412L85.8976 122.412C86.2629 122.815 86.4359 123.011 86.8015 123.419C86.7995 124.024 86.8035 124.334 86.8015 124.939C86.2353 124.929 85.95 124.929 85.3841 124.918C85.3851 124.624 85.3831 124.473 85.3841 124.179C84.7713 124.171 84.4767 124.168 83.8639 124.158C83.8606 125.038 83.8467 125.908 83.8434 126.788C83.9619 126.929 84.0331 127.015 84.1515 127.157C84.0321 127.288 83.9632 127.336 83.8434 127.466C83.8401 128.345 83.8467 129.236 83.8434 130.116C84.4568 130.155 84.7501 130.162 85.3635 130.198C85.3659 129.488 85.3815 128.792 85.3841 128.082C84.9973 128.066 84.8053 128.058 84.4186 128.041C84.4212 127.338 84.416 126.977 84.4186 126.274C85.2125 126.299 86.0073 126.315 86.8015 126.336C86.8005 126.555 86.8022 126.672 86.8015 126.89C86.9203 127.034 86.9707 127.116 87.0891 127.26C86.9697 127.395 86.9213 127.456 86.8015 127.589C86.7979 128.747 86.7849 129.903 86.781 131.061C86.4124 131.443 86.2252 131.63 85.8566 132.005C85.0062 131.947 84.1587 131.89 83.3093 131.821C82.9496 131.398 82.7651 131.19 82.4054 130.773C82.4097 129.655 82.4217 128.522 82.426 127.404C82.3095 127.266 82.2552 127.192 82.1384 127.055C82.2562 126.925 82.3085 126.877 82.426 126.747C82.4303 125.63 82.4422 124.515 82.4465 123.398C82.8148 123.01 83.0027 122.808 83.3709 122.412ZM88.9995 122.412C90.1268 122.412 91.2416 122.412 92.3685 122.412C92.7308 122.83 92.91 123.04 93.2724 123.46C93.2704 124.481 93.2743 125.499 93.2724 126.521C93.0529 126.863 92.9375 127.043 92.7177 127.383C92.9362 127.739 93.0539 127.91 93.2724 128.267C93.2707 129.29 93.274 130.304 93.2724 131.328C92.9077 131.734 92.7125 131.953 92.348 132.355C91.2178 132.315 90.0876 132.249 88.9585 132.19C88.9628 130.677 88.9744 129.164 88.979 127.651C88.8602 127.508 88.8102 127.444 88.6914 127.301C88.8109 127.163 88.8592 127.091 88.979 126.952C88.9833 125.438 88.9952 123.926 88.9995 122.412ZM95.4704 122.412L96.9289 122.412C97.2503 123.66 97.5525 124.903 97.8739 126.151C98.192 124.903 98.5222 123.66 98.8394 122.412L100.339 122.412C99.7588 124.529 99.175 126.644 98.5928 128.76C98.5928 129.995 98.5931 131.222 98.5928 132.457C98.0174 132.456 97.7303 132.463 97.1549 132.457C97.1555 131.219 97.1539 129.978 97.1549 128.739C96.5903 126.63 96.0353 124.522 95.4704 122.412ZM107.364 122.412C108.205 122.412 109.05 122.412 109.891 122.412C110.263 122.825 110.444 123.031 110.816 123.439C110.818 124.037 110.814 124.341 110.816 124.939C110.249 124.948 109.964 124.952 109.398 124.959C109.397 124.665 109.399 124.514 109.398 124.22C108.789 124.226 108.487 124.235 107.878 124.24C107.88 125.159 107.876 126.075 107.878 126.993C107.998 127.134 108.067 127.203 108.186 127.342C108.067 127.486 107.997 127.548 107.878 127.692C107.88 128.61 107.896 129.526 107.899 130.444C108.509 130.422 108.809 130.409 109.419 130.383C109.418 130.066 109.42 129.919 109.419 129.602C109.986 129.58 110.27 129.565 110.836 129.54C110.838 130.165 110.834 130.477 110.836 131.102C110.466 131.527 110.282 131.742 109.912 132.17C109.07 132.216 108.228 132.258 107.385 132.293C107.022 131.896 106.844 131.688 106.481 131.287C106.478 130.098 106.463 128.922 106.461 127.733C106.341 127.594 106.292 127.523 106.173 127.383C106.292 127.237 106.342 127.16 106.461 127.014C106.458 125.827 106.463 124.647 106.461 123.46C106.821 123.042 107.004 122.827 107.364 122.412ZM112.993 122.412L114.41 122.412C114.416 123.875 114.425 125.325 114.431 126.788C114.55 126.92 114.599 127.005 114.719 127.137C114.6 127.276 114.55 127.346 114.431 127.486C114.434 128.367 114.428 129.235 114.431 130.116C115.128 130.071 115.83 130.023 116.526 129.972C116.529 130.657 116.524 131.012 116.526 131.697C115.357 131.8 114.185 131.878 113.014 131.964C113.009 130.485 113.019 129.006 113.014 127.527C112.896 127.395 112.823 127.331 112.705 127.199C112.822 127.056 112.897 126.992 113.014 126.849C113.009 125.37 112.998 123.891 112.993 122.412ZM118.683 122.412L120.101 122.412C120.106 123.793 120.096 125.161 120.101 126.541C120.22 126.665 120.289 126.727 120.409 126.849C120.29 126.983 120.24 127.065 120.121 127.199C120.124 128.03 120.118 128.853 120.121 129.684C120.755 129.628 121.07 129.6 121.703 129.54C121.7 128.726 121.706 127.91 121.703 127.096C121.584 126.978 121.514 126.927 121.395 126.808C121.513 126.674 121.585 126.592 121.703 126.459C121.698 125.106 121.687 123.765 121.683 122.412L123.1 122.412C123.105 123.738 123.096 125.071 123.1 126.397C123.217 126.515 123.291 126.569 123.408 126.685C123.292 126.814 123.216 126.884 123.1 127.014C123.103 128.04 123.117 129.048 123.12 130.075C122.752 130.476 122.565 130.693 122.196 131.102C121.338 131.204 120.488 131.298 119.628 131.389C119.264 131.053 119.068 130.872 118.704 130.526C118.7 129.439 118.708 128.368 118.704 127.281C118.584 127.158 118.515 127.096 118.396 126.973C118.514 126.835 118.585 126.76 118.704 126.623C118.699 125.22 118.689 123.815 118.683 122.412ZM125.277 122.412C126.404 122.412 127.519 122.412 128.646 122.412C129.01 122.74 129.188 122.897 129.55 123.213L129.55 125.576C129.332 125.855 129.234 125.989 129.016 126.274C129.234 126.532 129.332 126.66 129.55 126.911L129.55 129.273C129.189 129.645 129.028 129.837 128.667 130.218C127.547 130.391 126.421 130.559 125.298 130.711C125.295 129.429 125.281 128.132 125.277 126.849C125.158 126.74 125.109 126.693 124.99 126.582C125.108 126.454 125.159 126.381 125.277 126.254C125.274 124.971 125.281 123.695 125.277 122.412ZM70.5319 123.871C70.5309 124.579 70.5329 124.929 70.5319 125.637C71.118 125.673 71.404 125.686 71.9904 125.72C71.9918 124.992 71.9888 124.639 71.9904 123.912C71.4034 123.897 71.1187 123.887 70.5319 123.871ZM128.133 123.871C127.552 123.887 127.276 123.897 126.695 123.912C126.696 124.633 126.693 124.977 126.695 125.699C127.275 125.665 127.553 125.653 128.133 125.617C128.132 124.914 128.133 124.573 128.133 123.871ZM90.3964 124.22C90.3944 124.952 90.3984 125.686 90.3964 126.418C90.9785 126.429 91.2728 126.45 91.8549 126.459C91.8566 125.723 91.8533 124.977 91.8549 124.24C91.2732 124.237 90.9782 124.225 90.3964 124.22ZM128.153 127.075C127.574 127.127 127.275 127.149 126.695 127.199C126.696 127.92 126.693 128.285 126.695 129.006C127.274 128.939 127.574 128.913 128.153 128.842C128.152 128.139 128.154 127.778 128.153 127.075ZM90.3964 128.246C90.3944 128.978 90.3984 129.712 90.3964 130.444C90.9792 130.466 91.2722 130.467 91.8549 130.485C91.8566 129.749 91.8533 129.024 91.8549 128.287C91.2725 128.274 90.9788 128.262 90.3964 128.246ZM58.2681 134.491C58.8476 139.293 59.9172 144.047 61.4727 148.727C64.5993 158.134 69.4907 166.499 76.3249 173.707C79.3208 176.866 82.5938 179.702 86.2058 182.108C84.3556 179.821 82.4535 177.572 80.6799 175.227C72.1634 163.964 66.8936 151.338 64.9444 137.347C64.8299 136.525 64.7472 135.702 64.6568 134.881C61.85 134.726 59.655 134.585 58.2681 134.491ZM141.588 134.491C140.201 134.585 138.027 134.726 135.22 134.881C135.13 135.702 135.026 136.525 134.912 137.347C132.963 151.338 127.693 163.964 119.176 175.227C117.403 177.572 115.501 179.821 113.65 182.108C117.262 179.702 120.535 176.866 123.531 173.707C130.366 166.499 135.257 158.134 138.383 148.727C139.939 144.047 141.009 139.293 141.588 134.491ZM127.517 135.148C126.281 135.226 125.014 135.289 123.737 135.354C122.368 140.495 120.607 145.532 118.519 150.473C117.801 152.173 117.021 153.841 116.239 155.609C116.502 155.493 116.714 155.428 116.896 155.321C119.001 154.088 121.095 152.852 123.203 151.623C123.706 151.33 123.966 150.911 124.127 150.35C125.563 145.346 126.735 140.293 127.517 135.148ZM76.3865 135.374C75.6203 135.566 74.8672 135.76 74.1063 135.97C73.0543 136.261 72.6228 137.047 72.9148 137.881C73.1953 138.681 73.9623 138.957 74.9691 138.661C76.0362 138.348 77.1165 138.05 78.1942 137.778C78.8595 137.61 79.5395 137.503 80.2074 137.367C80.5568 139.235 80.8887 141.004 81.2345 142.852C81.028 142.897 80.8462 142.93 80.6799 142.975C78.5779 143.549 76.482 144.101 74.3939 144.721C73.3753 145.024 72.9478 145.788 73.223 146.591C73.455 147.266 74.2585 147.828 75.3389 147.392C76.3064 147.001 77.3276 146.715 78.338 146.447C79.5303 146.13 80.7379 145.87 81.974 145.584C83.0584 149.192 84.3327 152.597 86.1852 155.937C85.6299 152.287 85.0983 148.82 84.5624 145.296C86.5132 145.14 88.3111 145.16 90.1088 145.461C90.9434 145.6 91.6312 145.106 91.7728 144.351C91.9219 143.558 91.4356 142.87 90.5813 142.708C89.9398 142.586 89.301 142.467 88.6503 142.441C87.2377 142.385 85.8033 142.384 84.2748 142.359C84.2276 140.583 84.1805 138.758 84.131 136.895C85.9512 136.768 87.8479 136.884 89.7185 137.264C90.6289 137.449 91.3394 136.986 91.5057 136.176C91.5318 136.049 91.5332 135.927 91.5263 135.806C86.0341 135.712 80.9046 135.555 76.3865 135.374ZM120.984 135.498C120.117 135.535 119.24 135.568 118.355 135.6C115.589 142.647 111.886 149.227 107.611 155.527C106.83 156.678 106.012 157.801 105.146 159.039C105.531 158.988 105.823 158.981 106.091 158.916C107.849 158.491 109.591 158.044 111.35 157.622C111.851 157.502 112.155 157.222 112.397 156.759C114.65 152.446 116.703 148.053 118.396 143.489C119.375 140.848 120.25 138.187 120.984 135.498ZM74.435 162.121C76.5683 166.305 79.1269 170.353 82.0357 174.2C83.0655 175.561 84.155 176.926 85.2403 178.246C87.7785 180.922 90.2553 182.751 92.615 183.937C92.7048 183.98 92.7923 184.018 92.8821 184.06C92.8949 184.066 92.9103 184.075 92.9231 184.08C93.0413 184.135 93.1549 184.193 93.2724 184.245C93.2859 184.251 93.2999 184.259 93.3134 184.265C93.7065 184.436 94.0989 184.579 94.4844 184.717C94.6084 184.762 94.731 184.799 94.8541 184.841C94.867 184.845 94.8824 184.857 94.8952 184.861C95.0117 184.9 95.1285 184.928 95.2444 184.964C95.2537 184.967 95.2557 184.981 95.265 184.984C95.6458 185.101 96.0219 185.205 96.3948 185.292C96.3998 185.294 96.4104 185.291 96.4154 185.292C96.5322 185.32 96.6484 185.35 96.7646 185.375C96.7755 185.377 96.7947 185.372 96.8057 185.375C96.9235 185.399 97.0381 185.415 97.1549 185.436C97.5241 185.505 97.9038 185.579 98.2642 185.621C98.378 185.634 98.5003 185.631 98.6134 185.642C98.62 185.642 98.6273 185.641 98.6339 185.642C99.1094 185.686 99.5722 185.722 100.031 185.724C100.034 185.724 100.048 185.724 100.051 185.724C100.166 185.725 100.267 185.726 100.38 185.724C100.4 185.724 100.422 185.724 100.442 185.724C100.584 185.721 100.732 185.71 100.873 185.703C100.885 185.703 100.881 185.704 100.894 185.703C101.171 185.689 101.445 185.669 101.715 185.642C101.728 185.64 101.744 185.643 101.756 185.642C102.028 185.613 102.294 185.559 102.558 185.518C102.567 185.517 102.589 185.52 102.599 185.518C102.731 185.498 102.858 185.481 102.989 185.457C102.993 185.456 103.005 185.457 103.009 185.457C103.139 185.433 103.251 185.401 103.379 185.375C103.384 185.374 103.396 185.375 103.4 185.375C103.528 185.348 103.664 185.322 103.79 185.292C103.8 185.29 103.8 185.295 103.811 185.292C104.033 185.24 104.252 185.168 104.468 185.108C109.205 183.71 112.637 180.457 114 178.986C114.032 178.947 114.07 178.902 114.102 178.863C115.35 177.347 116.628 175.777 117.821 174.2C120.73 170.353 123.288 166.305 125.421 162.121C125.421 162.121 99.8959 177.834 74.435 162.121Z" fill-rule="nonzero" opacity="1" stroke="none"/>
</g>
</svg>
