<?xml version="1.0" standalone="no"?>
<!DOCTYPE svg PUBLIC "-//W3C//DTD SVG 20010904//EN"
 "http://www.w3.org/TR/2001/REC-SVG-20010904/DTD/svg10.dtd">
<svg version="1.0" xmlns="http://www.w3.org/2000/svg"
 width="845.000000pt" height="1164.000000pt" viewBox="0 0 845.000000 1164.000000"
 preserveAspectRatio="xMidYMid meet">

<g transform="translate(0.000000,1164.000000) scale(0.100000,-0.100000)"
fill="#000000" stroke="none">
<path d="M4300 11490 c-417 -32 -815 -182 -1118 -423 -342 -271 -588 -623
-718 -1027 -71 -220 -95 -367 -124 -762 -22 -299 -80 -494 -194 -653 -55 -77
-173 -191 -260 -253 l-79 -56 99 -48 c123 -59 228 -87 364 -95 113 -6 261 9
317 32 18 8 33 11 33 7 0 -4 -38 -45 -85 -92 l-84 -85 59 -71 60 -72 -56 -38
-55 -38 -27 34 c-15 19 -39 48 -54 65 l-27 30 -256 -256 -256 -256 109 -226
110 -227 -885 -2 -886 -3 124 -146 c68 -80 192 -224 274 -320 153 -178 184
-214 338 -396 l88 -104 -15 -77 c-9 -42 -40 -216 -70 -387 -30 -170 -64 -359
-76 -420 -50 -270 -100 -555 -100 -575 0 -16 5 -20 18 -16 9 3 44 12 77 21 33
9 109 32 168 51 172 55 490 144 495 139 2 -2 -3 -86 -13 -187 -35 -374 -31
-831 11 -1198 86 -761 327 -1359 773 -1920 258 -325 735 -704 1191 -947 232
-124 336 -173 587 -277 l132 -55 118 55 c65 31 147 70 183 86 128 59 429 233
611 354 831 550 1301 1174 1560 2073 92 315 156 773 166 1181 5 234 -12 596
-37 776 -4 33 -6 61 -4 63 4 4 362 -106 508 -156 146 -50 419 -133 423 -129 7
6 -40 273 -156 881 -22 116 -54 289 -70 385 -17 96 -43 244 -59 327 l-29 152
116 133 c64 73 143 165 176 204 167 197 302 353 339 392 l40 42 -1037 0 c-570
0 -1037 2 -1037 4 0 2 50 104 111 225 61 122 109 228 107 235 -3 16 -468 506
-479 506 -4 0 -32 -27 -62 -60 l-55 -59 -40 29 c-22 16 -43 34 -47 40 -3 6 16
36 43 68 65 76 65 78 48 109 -9 17 -26 135 -45 308 -17 154 -42 384 -56 510
-14 127 -29 273 -35 325 -5 52 -21 203 -35 335 -14 132 -28 275 -32 319 -7 87
-5 85 -120 142 -29 15 -53 30 -53 36 0 11 107 189 172 286 91 135 206 268 369
426 135 131 160 159 148 170 -17 15 -213 136 -324 199 -118 67 -336 170 -449
212 -294 108 -681 166 -966 145z m162 -1080 c139 -23 290 -68 394 -115 l78
-36 -74 -74 c-41 -41 -81 -75 -88 -75 -8 0 -26 8 -40 19 -92 64 -276 132 -427
157 -315 51 -644 -64 -895 -316 -201 -200 -318 -457 -376 -825 l-8 -50 -7 45
c-19 113 3 316 47 450 67 201 164 357 306 496 180 175 392 287 621 329 113 21
336 18 469 -5z m-89 -244 c141 -42 309 -133 442 -239 64 -52 185 -169 185
-180 0 -8 -88 -51 -309 -149 -255 -113 -521 -214 -887 -338 -111 -37 -211 -73
-223 -79 -21 -12 -70 -98 -98 -175 -9 -23 -18 -81 -22 -131 l-6 -90 -64 -3
c-35 -2 -68 1 -72 5 -15 15 -22 333 -10 428 15 111 53 259 88 339 45 104 147
248 229 325 83 77 164 128 287 177 43 17 81 34 84 37 12 12 -182 -44 -246 -71
-243 -102 -449 -364 -530 -677 -41 -154 -54 -378 -36 -583 l7 -83 170 2 c229
3 229 2 137 -182 -93 -187 -258 -335 -446 -400 -74 -25 -194 -41 -256 -33
l-48 7 64 66 c90 95 169 212 240 358 l62 128 -5 85 c-10 177 -4 433 14 525 23
120 60 244 102 333 41 90 149 256 206 318 124 135 334 257 503 294 128 28 315
22 438 -14z m951 -413 c4 -21 15 -128 26 -238 11 -110 29 -270 40 -355 32
-256 110 -968 110 -1006 0 -12 -13 -6 -52 22 -29 21 -109 78 -178 128 -69 49
-127 90 -128 92 -2 1 6 98 17 215 12 116 20 213 19 215 -2 1 -71 29 -153 62
-83 33 -190 77 -240 97 -151 63 -309 125 -311 122 -6 -8 -142 -282 -141 -283
8 -8 411 -247 483 -286 l91 -50 7 -82 c3 -44 6 -169 6 -276 0 -236 14 -561 36
-848 9 -117 14 -215 12 -218 -8 -8 -407 242 -718 449 -217 145 -560 394 -560
406 0 4 16 44 35 90 65 153 106 330 119 515 5 66 4 77 -9 73 -14 -6 -125 50
-184 93 -18 14 -44 44 -58 68 -23 39 -25 51 -21 125 5 99 45 200 87 221 14 7
141 53 281 101 472 163 672 239 900 340 146 65 413 201 442 225 32 27 35 25
42 -17z m57 -1846 c42 -418 70 -676 74 -693 3 -12 -9 -47 -29 -84 l-34 -63 -6
59 c-10 102 -25 393 -28 534 -4 301 6 416 23 247z m-3145 -1304 c-4 -38 -9
-105 -13 -151 -5 -71 -8 -82 -22 -76 -65 28 -96 33 -197 34 l-111 0 -31 -217
c-17 -120 -52 -362 -77 -538 -25 -176 -48 -334 -51 -352 -4 -29 -10 -33 -62
-48 -31 -8 -101 -36 -155 -62 -54 -25 -100 -44 -102 -41 -3 3 -1 27 4 54 5 27
23 155 41 284 17 129 35 260 40 290 22 127 90 594 90 618 0 13 -19 14 -127 9
-71 -3 -149 -12 -175 -20 -27 -8 -48 -12 -48 -9 0 4 7 68 15 142 8 74 15 138
15 143 0 4 219 7 486 7 l487 0 -7 -67z m458 9 c-15 -37 -27 -96 -33 -163 -6
-57 -27 -246 -46 -419 -36 -314 -47 -486 -32 -526 7 -21 4 -21 -100 -28 -60
-4 -141 -9 -181 -13 l-74 -6 22 42 c16 33 26 86 41 229 11 103 29 261 40 352
43 350 51 437 45 513 l-5 77 173 0 174 0 -24 -58z m942 6 c-3 -29 -8 -87 -12
-128 l-6 -76 -131 1 -132 0 -16 -215 c-42 -542 -43 -561 -27 -622 l15 -58
-166 -1 c-91 0 -174 -2 -183 -4 -23 -4 -23 7 3 56 16 33 27 103 54 362 18 177
36 359 40 405 l6 82 -88 0 c-49 0 -113 -6 -143 -14 -30 -8 -56 -13 -58 -11 -2
2 2 64 9 139 l13 136 414 0 414 0 -6 -52z m636 -105 c65 -220 138 -484 197
-709 27 -105 57 -208 65 -229 9 -21 15 -39 14 -40 -2 -2 -85 -5 -186 -7 -164
-4 -182 -3 -176 11 15 35 16 77 4 143 l-12 69 -146 -3 -146 -3 -18 -75 c-12
-54 -15 -83 -8 -104 6 -16 10 -33 10 -37 0 -5 -85 -9 -190 -9 -104 0 -190 2
-190 5 0 2 13 24 29 47 19 27 47 100 76 198 53 177 167 519 232 695 35 94 44
129 40 163 l-5 42 182 0 181 0 47 -157z m662 140 c17 -44 288 -536 333 -603
l23 -35 -1 70 c-1 139 -26 550 -33 568 -8 16 2 17 133 17 78 0 141 -2 141 -4
0 -3 -5 -17 -11 -33 -8 -20 -8 -93 1 -263 11 -246 35 -666 46 -809 l6 -84 -28
8 c-16 4 -84 13 -151 19 l-123 11 -61 110 c-34 61 -113 208 -176 328 -63 120
-116 217 -118 215 -7 -9 24 -598 33 -620 l11 -27 -152 6 c-84 3 -153 6 -154 7
-1 1 3 20 9 42 13 46 -12 1045 -26 1077 -8 16 3 17 142 17 134 0 151 -2 156
-17z m1385 -95 c7 -62 16 -130 21 -150 9 -41 2 -46 -33 -24 -34 22 -130 36
-245 36 l-105 0 6 -47 c4 -27 9 -81 13 -121 8 -85 -3 -80 166 -84 64 -2 119
-6 122 -9 7 -7 36 -200 36 -240 0 -26 -2 -27 -37 -19 -49 11 -246 30 -251 25
-3 -2 2 -62 9 -132 l14 -128 145 -17 c80 -10 172 -16 206 -13 l61 5 15 -132
c8 -73 14 -134 13 -135 -1 -2 -55 8 -121 22 -106 22 -378 61 -551 80 -35 4
-63 10 -63 13 0 4 5 25 10 47 6 27 5 95 -5 210 -16 181 -37 445 -56 690 -9
108 -17 161 -30 187 -11 21 -19 40 -19 43 0 3 150 5 333 5 l334 0 12 -112z
m863 -75 c15 -104 25 -189 23 -191 -1 -2 -54 13 -116 33 -81 26 -119 44 -132
61 -17 22 -25 24 -113 24 -52 0 -94 -3 -94 -7 1 -21 29 -205 32 -207 1 -1 35
-12 73 -25 112 -35 285 -124 343 -176 35 -32 63 -69 86 -118 33 -67 38 -90 71
-347 20 -151 34 -288 31 -305 -10 -48 -44 -95 -82 -111 -35 -15 -41 -13 -257
56 -295 95 -298 96 -350 130 -77 52 -97 92 -113 227 -7 65 -18 135 -23 156 -8
34 -7 38 7 33 168 -55 224 -80 237 -107 8 -15 15 -39 15 -52 0 -14 6 -29 13
-35 13 -10 257 -86 261 -80 3 3 -32 268 -40 306 -4 18 -25 33 -92 64 -253 118
-311 149 -361 194 -89 80 -98 101 -121 288 -25 203 -25 227 -1 274 48 94 75
101 407 102 l270 0 26 -187z m-2047 -1184 c745 -26 1051 -55 1162 -109 145
-71 269 -286 298 -516 l7 -51 -139 -22 c-431 -67 -815 -81 -2279 -81 -1350 0
-1565 7 -1999 62 -88 11 -188 23 -222 27 -34 4 -65 10 -69 14 -11 11 16 156
47 251 38 116 82 197 143 263 78 86 97 92 367 117 574 55 1834 76 2684 45z
m-3100 -984 c55 -8 162 -19 239 -26 l139 -13 -4 -288 -4 -288 -30 -4 c-16 -3
-88 -12 -160 -21 -71 -9 -148 -18 -170 -21 l-40 -6 0 216 0 216 97 0 c53 0 99
-3 101 -8 3 -4 3 -28 0 -54 l-5 -47 -48 6 -47 5 -7 -102 c-4 -57 -3 -106 1
-110 8 -7 202 16 211 25 2 2 6 89 9 193 l5 190 -38 6 c-22 3 -108 10 -192 16
-84 6 -159 13 -166 16 -11 4 -16 -9 -22 -53 -7 -61 2 -571 12 -636 6 -36 8
-38 33 -32 58 15 403 65 446 65 8 0 16 -47 24 -127 11 -117 54 -394 66 -435 5
-13 -9 -21 -62 -39 -37 -12 -114 -41 -171 -65 l-103 -43 -9 25 c-32 82 -100
407 -88 419 11 12 169 37 177 29 5 -5 11 -28 14 -52 l5 -42 -38 -6 c-63 -10
-63 -10 -36 -124 14 -56 27 -105 30 -107 2 -2 31 5 65 17 33 11 69 20 80 20
11 0 22 4 25 8 5 8 -50 411 -57 418 -2 2 -37 -3 -78 -11 -41 -8 -122 -24 -180
-36 -58 -11 -111 -24 -116 -27 -15 -9 16 -225 61 -428 36 -161 64 -264 71
-264 2 0 25 10 52 21 162 71 365 150 370 145 2 -2 -9 -30 -24 -61 l-28 -58
-159 -73 c-88 -40 -164 -78 -170 -84 -20 -20 112 -324 216 -496 52 -88 55 -96
62 -180 4 -55 3 -85 -3 -79 -40 42 -159 241 -232 391 -142 287 -255 678 -309
1063 -37 262 -52 663 -35 938 l8 123 56 -6 c31 -3 101 -12 156 -19z m4642 -12
c4 -16 7 -165 8 -333 0 -231 -4 -343 -18 -460 -66 -570 -164 -935 -354 -1314
-121 -242 -223 -397 -416 -635 -200 -247 -492 -497 -837 -718 -179 -116 -541
-299 -678 -344 -94 -31 -104 -32 -139 -20 -281 99 -686 300 -918 454 -72 48
-195 140 -192 144 2 1 41 -4 87 -11 80 -12 94 -18 227 -98 187 -113 402 -218
651 -317 l202 -81 180 80 c232 103 317 146 470 238 226 136 389 254 573 415
l67 59 -45 51 c-25 27 -72 85 -104 128 l-59 78 122 120 c67 67 125 121 129
121 14 0 177 -113 177 -123 0 -5 -26 -41 -57 -79 -32 -39 -65 -79 -74 -91
l-17 -21 -31 26 -31 26 40 48 c22 27 40 52 40 56 0 4 -12 15 -26 25 l-26 17
-70 -72 -70 -71 19 -31 c21 -36 126 -140 142 -140 13 0 142 141 236 259 69 88
88 121 66 121 -4 0 -75 44 -157 98 -82 54 -154 101 -160 105 -7 4 -42 -28 -87
-81 -41 -48 -122 -135 -181 -194 -101 -100 -107 -108 -95 -130 24 -45 93 -144
138 -197 l45 -54 -34 -29 c-72 -61 -401 -268 -426 -268 -9 0 -118 170 -112
174 2 1 23 12 47 25 48 26 43 28 83 -41 l21 -37 41 25 c23 13 48 29 56 33 12
8 10 16 -14 48 -15 21 -41 60 -58 86 -22 35 -35 46 -47 42 -10 -3 -68 -34
-130 -69 -61 -35 -170 -93 -241 -127 l-130 -63 1 -60 c1 -91 13 -171 24 -169
9 2 215 84 223 89 2 1 -5 18 -15 38 -18 38 -21 39 -84 20 -10 -3 -19 3 -23 12
-8 21 -17 14 82 57 l84 36 14 -36 c8 -19 28 -62 44 -96 17 -33 30 -62 30 -64
0 -15 -252 -122 -370 -158 l-75 -22 -7 38 c-4 21 -12 91 -18 156 -6 65 -13
141 -16 169 l-6 50 88 34 c133 49 351 165 497 263 32 21 62 37 67 35 9 -3 61
-77 131 -186 l41 -62 49 27 c27 16 47 33 45 38 -2 6 -42 68 -90 138 -47 71
-86 132 -86 136 0 3 64 72 143 151 78 80 182 193 232 253 49 59 94 107 100
107 7 0 32 -15 56 -34 65 -50 340 -226 353 -226 29 1 224 355 300 546 51 130
51 134 -9 157 -27 10 -102 40 -165 67 -169 70 -155 70 -175 8 -23 -70 -89
-226 -132 -312 -19 -37 -33 -69 -31 -71 21 -16 179 -107 182 -104 2 2 32 59
67 126 61 119 62 123 43 138 -10 8 -22 15 -25 15 -3 0 -18 -27 -34 -60 -36
-76 -45 -84 -79 -69 -14 7 -26 16 -26 20 0 11 81 161 98 181 7 9 11 22 7 27
-10 18 7 13 101 -28 78 -34 89 -42 86 -62 -1 -13 -48 -116 -103 -230 l-101
-206 -162 100 c-88 55 -165 103 -170 108 -6 5 22 75 72 176 44 93 102 226 128
297 l47 128 39 -6 c34 -6 215 -71 375 -135 29 -11 54 -17 57 -13 25 42 157
674 143 688 -10 11 -365 69 -373 62 -1 -2 -17 -91 -34 -198 -18 -107 -33 -198
-33 -203 -2 -8 128 -56 154 -57 11 0 21 24 37 93 30 123 29 127 -10 127 -52 0
-59 10 -52 64 l7 48 36 -6 c20 -3 62 -8 95 -12 l58 -7 -6 -51 c-14 -105 -76
-380 -89 -393 -3 -3 -71 22 -152 56 -80 33 -157 64 -171 67 -13 3 -24 10 -24
16 0 5 11 53 24 106 24 95 45 219 66 376 6 44 12 82 15 84 3 3 107 -11 232
-30 126 -20 231 -33 235 -29 25 22 34 691 10 712 -10 8 -388 -24 -384 -33 1
-5 2 -93 2 -197 l0 -189 33 -6 c17 -3 62 -8 98 -12 l65 -6 3 106 2 106 -50 0
-51 0 0 50 0 50 96 0 96 0 -4 -209 c-2 -115 -6 -212 -9 -216 -4 -3 -86 6 -183
20 -97 14 -181 25 -186 25 -6 0 -10 109 -10 288 l0 289 203 22 c111 12 234 26
272 30 39 5 76 9 82 10 7 0 16 -11 20 -26z m-1522 -93 c55 -11 138 -32 185
-47 89 -29 241 -102 247 -119 2 -5 -63 -42 -144 -81 -276 -134 -710 -428
-1083 -732 -672 -549 -1419 -1353 -1625 -1749 -15 -28 -30 -52 -34 -52 -12 0
-72 98 -96 156 -54 133 -76 423 -46 609 68 433 283 862 612 1220 241 262 500
460 794 605 248 122 443 179 735 214 83 10 358 -4 455 -24z m530 -284 c46 -82
75 -181 83 -283 10 -127 -3 -370 -28 -503 -72 -393 -311 -821 -645 -1156 -152
-153 -289 -257 -498 -382 -326 -194 -607 -301 -896 -343 -127 -19 -175 -21
-371 -16 -177 4 -244 10 -315 26 -95 22 -219 77 -249 110 -18 20 -17 22 24 88
63 100 205 283 333 430 235 269 832 859 1102 1088 359 304 513 428 765 610
277 202 607 401 649 393 8 -2 29 -29 46 -62z m-3275 -1363 c-8 -35 -27 -215
-33 -307 -2 -37 -4 -33 -64 87 -89 179 -90 164 9 213 46 23 86 42 89 43 4 0 3
-16 -1 -36z m1873 -1485 c4 -57 10 -156 13 -220 l7 -118 -207 71 c-222 75
-350 127 -486 199 l-85 45 105 3 c103 3 106 2 190 -37 84 -39 328 -121 359
-121 14 0 16 12 13 81 l-4 81 -26 -8 c-39 -10 -59 -8 -139 17 l-72 23 151 38
c83 21 153 40 156 43 15 15 20 -4 25 -97z"/>
<path d="M3148 8520 c-46 -100 -117 -220 -185 -310 -28 -39 -49 -70 -45 -70 4
0 30 13 58 29 83 48 148 129 210 260 30 64 61 128 69 144 l14 27 -43 0 -43 0
-35 -80z"/>
<path d="M3911 8235 c-13 -55 -39 -140 -57 -189 -19 -49 -31 -93 -27 -97 29
-29 337 -251 478 -344 189 -125 418 -265 395 -242 -39 39 -327 278 -530 441
l-225 180 -5 175 -5 176 -24 -100z"/>
<path d="M4047 6344 c-46 -157 -97 -344 -97 -353 0 -7 30 -11 95 -11 52 0 95
3 95 8 0 21 -74 358 -80 366 -5 4 -10 0 -13 -10z"/>
<path d="M3646 5182 c-3 -5 -8 -120 -12 -256 l-7 -248 136 4 c173 4 180 9 185
128 4 74 2 80 -22 105 l-26 26 20 26 c16 20 20 41 20 98 0 69 -2 75 -31 99
-29 25 -37 26 -144 26 -63 0 -116 -4 -119 -8z m192 -136 c4 -47 -1 -52 -55
-61 l-43 -7 0 57 0 56 48 -3 c47 -3 47 -3 50 -42z m0 -210 c4 -56 -5 -66 -60
-66 l-38 0 0 61 0 60 48 -3 47 -3 3 -49z"/>
<path d="M4025 5170 c3 -11 35 -80 71 -154 l64 -135 0 -101 0 -100 50 0 50 0
0 93 c0 92 1 95 56 218 92 203 86 189 70 195 -7 3 -35 4 -61 2 l-48 -3 -35
-92 c-20 -51 -38 -91 -40 -88 -3 3 -15 33 -28 68 -45 126 -37 117 -99 117 -52
0 -56 -2 -50 -20z"/>
<path d="M4735 5178 c-52 -28 -55 -40 -55 -246 l0 -194 28 -27 c19 -19 43 -30
75 -35 114 -17 197 26 197 104 0 21 3 45 6 53 4 12 -6 16 -50 19 l-56 3 0 -32
c0 -32 -21 -63 -44 -63 -7 0 -20 6 -30 13 -16 12 -19 33 -23 154 -4 156 0 167
59 161 30 -3 33 -6 36 -41 l3 -38 52 3 52 3 0 46 c-1 56 -25 96 -70 115 -40
17 -151 18 -180 2z"/>
<path d="M3252 5166 c-54 -25 -62 -60 -62 -261 0 -107 4 -184 11 -197 16 -30
71 -48 146 -48 133 0 166 41 161 199 l-3 86 -77 3 c-77 3 -78 3 -78 -22 0 -13
-3 -31 -6 -40 -5 -13 1 -16 25 -16 30 0 31 -2 31 -42 0 -59 -10 -70 -56 -66
l-39 3 0 160 0 160 45 0 c41 0 45 -2 48 -27 3 -23 8 -27 50 -30 26 -3 49 -3
51 -1 2 2 4 24 4 49 0 35 -5 51 -25 71 -22 22 -36 26 -109 29 -61 3 -93 0
-117 -10z"/>
<path d="M2966 5158 c-3 -7 -7 -96 -10 -197 -4 -113 -10 -189 -17 -197 -14
-17 -43 -18 -70 -3 -19 10 -20 18 -15 97 3 48 8 135 11 195 l6 107 -54 0 -54
0 -8 -209 c-9 -275 -8 -277 130 -288 50 -4 80 -1 106 10 58 24 66 53 74 290
l7 207 -52 0 c-32 0 -52 -5 -54 -12z"/>
<path d="M5108 4980 c-1 -104 -2 -215 -3 -247 l0 -56 118 -3 117 -4 0 45 0 45
-65 0 -65 0 0 205 0 205 -50 0 -50 0 -2 -190z"/>
<path d="M5457 5163 c-4 -3 -7 -96 -7 -206 0 -170 3 -203 17 -228 24 -41 70
-59 148 -59 71 0 117 17 135 49 11 22 13 196 3 344 l-6 97 -49 0 -48 0 0 -188
c0 -133 -4 -192 -12 -200 -16 -16 -53 -15 -66 1 -5 6 -13 95 -17 197 -4 122
-11 187 -18 192 -15 10 -71 10 -80 1z"/>
<path d="M2394 5153 l-42 -4 -5 -57 c-4 -31 -9 -111 -12 -177 -3 -66 -8 -150
-11 -187 l-5 -68 49 0 c47 0 50 1 56 31 3 17 6 58 6 90 0 32 4 60 9 63 22 14
40 -11 65 -94 l26 -90 55 0 55 0 -35 97 c-20 53 -34 97 -33 97 26 9 45 29 55
57 15 43 16 174 2 201 -22 41 -92 54 -235 41z m146 -141 c0 -68 -11 -82 -62
-82 l-38 0 0 70 0 70 50 0 50 0 0 -58z"/>
<path d="M5880 4915 l0 -245 128 0 c70 0 132 4 138 8 23 15 34 53 34 121 0 61
-3 72 -24 88 l-24 19 25 24 c24 23 25 28 18 95 -7 78 -24 112 -58 119 -12 3
-70 7 -129 10 l-108 6 0 -245z m178 146 c9 -5 12 -25 10 -57 l-3 -49 -42 -3
-43 -3 0 60 0 61 33 0 c17 0 38 -4 45 -9z m20 -259 l3 -53 -48 3 c-48 3 -48 3
-51 42 -5 59 2 68 50 64 l43 -3 3 -53z"/>
<path d="M6234 10885 c-10 -8 -14 -15 -8 -15 6 0 17 7 24 15 16 19 9 19 -16 0z"/>
<path d="M6184 10838 l-19 -23 23 19 c21 18 27 26 19 26 -2 0 -12 -10 -23 -22z"/>
<path d="M6093 10765 c-15 -13 -23 -25 -17 -25 6 0 21 11 34 25 30 32 19 32
-17 0z"/>
<path d="M6034 10708 l-19 -23 23 19 c21 18 27 26 19 26 -2 0 -12 -10 -23 -22z"/>
<path d="M5919 10593 l-34 -38 38 34 c34 33 42 41 34 41 -2 0 -19 -17 -38 -37z"/>
<path d="M5764 10418 l-19 -23 23 19 c21 18 27 26 19 26 -2 0 -12 -10 -23 -22z"/>
<path d="M5565 10127 c-8 -19 -2 -31 13 -26 5 2 6 13 2 24 -7 19 -8 19 -15 2z"/>
<path d="M5672 9880 c0 -19 2 -27 5 -17 2 9 2 25 0 35 -3 9 -5 1 -5 -18z"/>
<path d="M5692 9680 c0 -19 2 -27 5 -17 2 9 2 25 0 35 -3 9 -5 1 -5 -18z"/>
<path d="M5712 9480 c0 -19 2 -27 5 -17 2 9 2 25 0 35 -3 9 -5 1 -5 -18z"/>
<path d="M5802 8690 c0 -14 2 -19 5 -12 2 6 2 18 0 25 -3 6 -5 1 -5 -13z"/>
<path d="M5822 8485 c0 -16 2 -22 5 -12 2 9 2 23 0 30 -3 6 -5 -1 -5 -18z"/>
<path d="M5843 8315 c0 -22 2 -30 4 -17 2 12 2 30 0 40 -3 9 -5 -1 -4 -23z"/>
<path d="M1676 8222 c22 -20 144 -92 155 -92 7 0 -25 23 -71 50 -78 47 -106
61 -84 42z"/>
<path d="M5850 8178 c0 -9 5 -20 10 -23 13 -8 13 5 0 25 -8 13 -10 13 -10 -2z"/>
<path d="M1888 8101 c18 -12 40 -21 50 -21 20 1 -18 23 -58 35 -21 5 -20 3 8
-14z"/>
<path d="M1995 8060 c3 -5 16 -10 28 -10 18 0 19 2 7 10 -20 13 -43 13 -35 0z"/>
<path d="M2094 8036 c11 -9 28 -16 37 -16 10 0 21 -11 26 -26 l9 -26 32 27
c18 15 30 30 28 34 -3 4 -29 8 -58 10 -29 1 -62 4 -73 7 -20 5 -20 5 -1 -10z"/>
<path d="M6426 7323 c-6 -14 -5 -15 5 -6 7 7 10 15 7 18 -3 3 -9 -2 -12 -12z"/>
<path d="M6350 7169 c-23 -44 -22 -54 7 -45 14 4 18 16 18 46 0 22 -1 40 -2
40 -1 0 -12 -18 -23 -41z"/>
<path d="M1786 7170 c6 -37 20 -58 30 -48 3 3 -4 23 -16 45 l-21 38 7 -35z"/>
<path d="M8338 6973 c-36 -43 -83 -98 -104 -122 -25 -29 -31 -40 -17 -33 11 7
54 53 94 104 40 51 79 101 87 111 8 9 13 17 10 17 -3 0 -34 -35 -70 -77z"/>
<path d="M94 6977 c16 -20 30 -37 33 -37 7 0 -36 58 -49 66 -7 4 1 -9 16 -29z"/>
<path d="M140 6923 c1 -4 17 -26 37 -48 36 -40 28 -25 -14 28 -13 16 -23 25
-23 20z"/>
<path d="M8009 6583 c-13 -16 -12 -17 4 -4 9 7 17 15 17 17 0 8 -8 3 -21 -13z"/>
<path d="M450 6556 c0 -2 8 -10 18 -17 15 -13 16 -12 3 4 -13 16 -21 21 -21
13z"/>
<path d="M7974 6538 l-19 -23 23 19 c12 11 22 21 22 23 0 8 -8 2 -26 -19z"/>
<path d="M490 6506 c0 -2 8 -10 18 -17 15 -13 16 -12 3 4 -13 16 -21 21 -21
13z"/>
<path d="M545 6440 c10 -11 20 -20 23 -20 3 0 -3 9 -13 20 -10 11 -20 20 -23
20 -3 0 3 -9 13 -20z"/>
<path d="M7655 6160 c-3 -5 -1 -10 4 -10 6 0 11 5 11 10 0 6 -2 10 -4 10 -3 0
-8 -4 -11 -10z"/>
<path d="M860 6073 c18 -24 36 -41 39 -38 3 3 -12 22 -33 43 l-39 37 33 -42z"/>
<path d="M7781 5464 c0 -11 3 -14 6 -6 3 7 2 16 -1 19 -3 4 -6 -2 -5 -13z"/>
<path d="M7952 4560 c0 -14 2 -19 5 -12 2 6 2 18 0 25 -3 6 -5 1 -5 -13z"/>
<path d="M1385 4534 l-40 -14 38 5 c32 3 39 0 52 -23 l14 -27 1 38 c0 41 -4
43 -65 21z"/>
<path d="M7056 4418 c4 -73 8 -135 10 -137 2 -2 4 43 4 102 0 136 15 156 92
123 33 -14 78 -28 193 -61 33 -10 65 -22 72 -27 7 -5 22 -8 35 -6 21 3 -370
138 -400 138 -9 0 -11 -30 -6 -132z"/>
<path d="M1280 4507 c-29 -9 -31 -11 -13 -14 12 -3 34 3 50 11 32 18 14 19
-37 3z"/>
<path d="M1193 4480 c-13 -5 -23 -12 -23 -16 0 -8 53 5 65 17 12 12 -12 11
-42 -1z"/>
<path d="M1098 4443 c7 -3 16 -2 19 1 4 3 -2 6 -13 5 -11 0 -14 -3 -6 -6z"/>
<path d="M998 4413 c7 -3 16 -2 19 1 4 3 -2 6 -13 5 -11 0 -14 -3 -6 -6z"/>
<path d="M885 4385 c-39 -13 -60 -23 -47 -24 26 -1 122 27 137 40 15 14 -15 9
-90 -16z"/>
<path d="M7504 4396 c11 -9 28 -16 39 -16 10 0 27 -5 38 -11 11 -5 28 -9 37
-7 9 3 -9 12 -40 21 -32 10 -65 20 -75 23 -16 5 -16 4 1 -10z"/>
<path d="M750 4347 c-29 -9 -31 -11 -13 -14 12 -3 34 3 50 11 32 18 14 19 -37
3z"/>
<path d="M7660 4345 c14 -8 36 -14 50 -14 22 0 21 2 -10 14 -47 18 -71 18 -40
0z"/>
<path d="M7745 4322 c6 -5 26 -12 45 -16 41 -7 21 8 -25 18 -19 5 -26 4 -20
-2z"/>
<path d="M7835 4290 c3 -5 16 -10 28 -9 21 0 21 1 2 9 -28 12 -37 12 -30 0z"/>
<path d="M7910 4266 c0 -2 7 -7 16 -10 8 -3 12 -2 9 4 -6 10 -25 14 -25 6z"/>
<path d="M7063 3735 c0 -27 2 -38 4 -22 2 15 2 37 0 50 -2 12 -4 0 -4 -28z"/>
<path d="M7042 3470 c0 -14 2 -19 5 -12 2 6 2 18 0 25 -3 6 -5 1 -5 -13z"/>
<path d="M7021 3324 c0 -11 3 -14 6 -6 3 7 2 16 -1 19 -3 4 -6 -2 -5 -13z"/>
<path d="M6635 1999 c-4 -6 -5 -12 -2 -15 2 -3 7 2 10 11 7 17 1 20 -8 4z"/>
<path d="M6416 1618 l-17 -33 20 24 c18 20 27 41 18 41 -1 0 -11 -15 -21 -32z"/>
<path d="M2342 1240 c7 -11 19 -22 28 -25 8 -4 4 5 -9 19 -29 31 -36 33 -19 6z"/>
<path d="M6065 1180 c-21 -22 -34 -40 -28 -40 6 0 26 18 43 40 17 22 30 40 28
40 -2 0 -22 -18 -43 -40z"/>
<path d="M5864 978 l-19 -23 23 19 c12 11 22 21 22 23 0 8 -8 2 -26 -19z"/>
<path d="M5789 913 c-13 -16 -12 -17 4 -4 16 13 21 21 13 21 -2 0 -10 -8 -17
-17z"/>
<path d="M5600 759 c-22 -18 -22 -19 -3 -10 12 6 25 16 28 21 9 15 3 12 -25
-11z"/>
<path d="M5496 685 c-11 -8 -15 -15 -9 -15 6 0 16 7 23 15 16 19 11 19 -14 0z"/>
<path d="M5332 566 c-46 -33 -53 -43 -14 -20 19 10 38 25 44 32 15 17 8 14
-30 -12z"/>
<path d="M3160 556 c0 -3 9 -10 20 -16 11 -6 20 -8 20 -6 0 3 -9 10 -20 16
-11 6 -20 8 -20 6z"/>
<path d="M3210 526 c0 -3 9 -10 20 -16 11 -6 20 -8 20 -6 0 3 -9 10 -20 16
-11 6 -20 8 -20 6z"/>
<path d="M5224 494 c-18 -14 -18 -15 4 -4 12 6 22 13 22 15 0 8 -5 6 -26 -11z"/>
<path d="M3300 466 c0 -2 7 -7 16 -10 8 -3 12 -2 9 4 -6 10 -25 14 -25 6z"/>
<path d="M5010 360 c-9 -6 -10 -10 -3 -10 6 0 15 5 18 10 8 12 4 12 -15 0z"/>
<path d="M3520 346 c0 -3 9 -10 20 -16 11 -6 20 -8 20 -6 0 3 -9 10 -20 16
-11 6 -20 8 -20 6z"/>
<path d="M4964 334 c-18 -14 -18 -15 4 -4 12 6 22 13 22 15 0 8 -5 6 -26 -11z"/>
<path d="M4780 235 c-17 -10 -20 -14 -9 -15 9 0 22 7 29 15 15 18 12 18 -20 0z"/>
<path d="M4670 180 c-8 -5 -10 -10 -5 -10 6 0 17 5 25 10 8 5 11 10 5 10 -5 0
-17 -5 -25 -10z"/>
<path d="M3917 149 c7 -7 15 -10 18 -7 3 3 -2 9 -12 12 -14 6 -15 5 -6 -5z"/>
<path d="M4570 130 c-9 -6 -10 -10 -3 -10 6 0 15 5 18 10 8 12 4 12 -15 0z"/>
<path d="M4500 100 c-9 -6 -10 -10 -3 -10 6 0 15 5 18 10 8 12 4 12 -15 0z"/>
<path d="M4038 93 c7 -3 16 -2 19 1 4 3 -2 6 -13 5 -11 0 -14 -3 -6 -6z"/>
<path d="M4390 45 c-14 -8 -20 -14 -14 -15 5 0 19 7 30 15 24 18 16 19 -16 0z"/>
<path d="M4330 20 c-9 -6 -10 -10 -3 -10 6 0 15 5 18 10 8 12 4 12 -15 0z"/>
</g>
</svg>
