<?xml version="1.0" encoding="UTF-8" standalone="no"?>
<!DOCTYPE svg PUBLIC "-//W3C//DTD SVG 1.1//EN" "http://www.w3.org/Graphics/SVG/1.1/DTD/svg11.dtd">
<!-- Created with Vectornator (http://vectornator.io/) -->
<svg height="100%" stroke-miterlimit="10" style="fill-rule:nonzero;clip-rule:evenodd;stroke-linecap:round;stroke-linejoin:round;" version="1.1" viewBox="0 0 200 200" width="100%" xml:space="preserve" xmlns="http://www.w3.org/2000/svg" xmlns:vectornator="http://vectornator.io" xmlns:xlink="http://www.w3.org/1999/xlink">
<defs/>
<g id="logo">
<path d="M100.582 10.0106C98.8149 10.0364 96.1162 10.2973 93.2951 11.3644C89.7159 12.7189 86.8483 14.9701 84.774 18.0639L82.8328 20.9607L84.993 28.6755C83.7404 29.5458 82.2602 30.793 80.8618 32.508C79.0101 34.7799 77.6315 37.4438 76.7704 40.412C76.5551 41.1549 76.3733 41.9148 76.2229 42.7016L76.0437 42.6418L73.5551 49.6599C73.4232 50.0341 72.7399 52.0518 72.2809 54.9458C71.6524 58.9076 71.7287 62.619 72.4999 65.9755L73.0972 68.5836L73.2664 68.713L69.3841 72.3863L67.1443 69.3402L53.2178 83.7346L54.6811 87.5671L48.4396 87.5671L48.4396 87.577L44.6667 87.577L44.6667 87.6069L21.2335 87.6069L39.1817 104.649C39.9542 105.382 40.7758 106.131 41.6206 106.889L45.9509 110.761L45.3934 113.957L45.2342 114.903L45.1545 115.37L41.3917 137.39L54.8304 134.583C55.4758 139.491 56.5812 144.342 58.1354 149.017C60.4582 156.007 63.7411 162.493 67.8809 168.309L68.9461 169.892L69.0556 169.892C69.1601 170.029 69.27 170.166 69.3741 170.3L69.3841 170.31C79.4971 183.366 90.1973 189.99 101.189 189.99C103.81 189.99 106.46 189.608 109.063 188.846L109.272 188.776C118.244 186.085 125.194 179.424 129.44 174.312L129.49 174.252L129.54 174.182C129.748 173.906 129.953 173.627 130.177 173.326C132.222 170.75 133.486 168.725 133.781 168.239L133.801 168.22C137.94 162.403 141.213 155.906 143.536 148.917C145.108 144.19 146.229 139.288 146.871 134.324L149.648 135.11L149.748 135.13C150.303 135.255 150.753 135.359 151.181 135.459L155.312 136.405L158.856 134.075C159.998 133.321 161.14 132.534 162.261 131.746L167.437 128.102L165.098 115.46L163.057 104.42L180.766 87.6069L151.599 87.597L151.56 87.577L147.309 87.577L148.782 83.7346L134.856 69.3402L132.616 72.3863L128.684 68.6433L128.763 68.5836L129.361 65.9755C130.132 62.6196 130.208 58.9076 129.58 54.9458C129.111 51.9868 128.387 49.8911 128.306 49.6599L125.827 42.6418L125.648 42.7016C125.497 41.9148 125.306 41.1552 125.09 40.412C124.229 37.4438 122.861 34.7799 121.009 32.508C119.611 30.793 118.12 29.5458 116.868 28.6755L119.028 20.9607L117.097 18.0639C115.023 14.9708 112.155 12.7189 108.575 11.3644C105.755 10.2976 103.055 10.0367 101.289 10.0106L101.209 10.0106C101.121 10.0086 101.035 10.0106 100.95 10.0106L100.91 10.0106C100.827 10.0106 100.748 10.009 100.662 10.0106L100.582 10.0106ZM100.612 12.6386L100.701 12.6386C100.77 12.6373 100.84 12.6386 100.91 12.6386L100.95 12.6386C101.021 12.6386 101.096 12.637 101.169 12.6386L101.249 12.6386C102.804 12.6615 105.175 12.8812 107.64 13.8132C110.698 14.9708 113.143 16.8966 114.907 19.5272L116.171 21.4086L113.802 29.8701C115.054 30.5406 117.097 31.8747 118.968 34.1705C120.596 36.1674 121.81 38.5113 122.572 41.1387C123.032 42.726 123.331 44.4298 123.458 46.2156L124.214 45.9567L125.827 50.5359C125.935 50.8445 128.464 58.1552 126.802 65.3882L126.414 67.0904L124.652 68.4642L125.329 72.1872L126.424 70.1166L131.123 74.5962L132.964 76.3482L135.124 73.4017L145.736 84.3617L144.611 87.2884C144.26 88.2045 143.789 89.1758 143.218 90.1951L150.703 90.1951L150.733 90.225L174.186 90.2349L161.016 102.738C160.751 102.99 160.483 103.239 160.22 103.485L161.942 112.842L164.55 126.928L160.748 129.605C159.65 130.378 158.523 131.145 157.403 131.885L154.805 133.597L151.779 132.891C151.345 132.791 150.877 132.688 150.315 132.562L150.295 132.562L144.591 130.969C144.075 136.802 142.885 142.561 141.047 148.091C138.804 154.843 135.637 161.106 131.64 166.716L131.571 166.826C131.379 167.145 130.161 169.136 128.097 171.733C127.87 172.038 127.663 172.317 127.449 172.6L127.43 172.619L127.42 172.639C123.405 177.474 116.869 183.764 108.526 186.267L108.317 186.327C105.959 187.017 103.56 187.362 101.189 187.362C91.052 187.362 81.0539 181.088 71.4646 168.707L71.4447 168.687C71.1472 168.303 70.8499 167.911 70.5587 167.523C70.4934 167.435 70.425 167.352 70.3596 167.264L70.3397 167.264L70.0311 166.816C66.035 161.206 62.8778 154.932 60.634 148.181C58.8342 142.767 57.6439 137.143 57.11 131.437C56.4054 131.578 55.7245 131.717 55.0594 131.855L44.6369 134.025L47.892 114.972L47.9816 114.405L48.788 109.766L44.0894 105.575C44.025 105.518 43.8604 105.376 43.8604 105.376L43.3627 104.928C42.5402 104.19 41.7382 103.454 40.9835 102.738L27.8136 90.2349L46.8568 90.225L46.8568 90.1951L50.0622 90.1951L58.7725 90.1951C58.2026 89.1793 57.7395 88.2039 57.3888 87.2884L56.2738 84.3617L66.8755 73.4017L69.0357 76.3482L75.5858 70.1266L76.5713 71.998L77.2084 68.4642L75.4465 67.0904L75.0582 65.3882C73.396 58.1552 75.9255 50.8436 76.0338 50.5359L77.6564 45.9567L78.4129 46.2156C78.5394 44.4298 78.8283 42.726 79.289 41.1387C80.0509 38.5113 81.2647 36.1674 82.8925 34.1705C84.764 31.875 86.8071 30.5406 88.059 29.8701L85.6898 21.4086L86.954 19.5272C88.7178 16.8963 91.1625 14.9705 94.2209 13.8132C96.6858 12.8808 99.0547 12.6615 100.612 12.6386Z" fill-rule="nonzero" opacity="1" stroke="none"/>
<path d="M122.007 64.6902L119.279 66.8264L121.735 80.3567C121.735 80.3567 114.915 90.0887 108.914 92.9372L107.004 67.301L116.006 62.554C116.006 62.554 116.551 58.7566 116.279 58.5187L102.912 62.7917L103.457 74.8971L102.823 75.2654L100.866 76.3214L98.8127 75.1217L98.8054 75.1262L98.4107 74.8971L98.9564 62.7917L85.5898 58.5187C85.3171 58.7566 85.8628 62.554 85.8628 62.554L94.8646 67.301L92.9549 92.9372C86.9538 90.0887 80.134 80.3567 80.134 80.3567L82.5893 66.8264L79.8616 64.6902C78.4976 58.7566 80.6797 52.5851 80.6797 52.5851L94.0466 57.0944L83.4077 51.3978C82.0437 37.6305 91.0455 34.3077 91.0455 34.3077L96.5016 42.1405L91.0455 22.6766C93.7379 18.6603 98.2571 18.0076 100.691 17.971C100.714 17.971 100.737 17.97 100.761 17.9694C100.797 17.9688 100.832 17.9688 100.866 17.9688L100.934 17.9688C100.991 17.9688 101.048 17.9688 101.108 17.9694C101.131 17.97 101.154 17.971 101.177 17.971C103.612 18.0076 108.131 18.6603 110.823 22.6766L105.367 42.1405L110.823 34.3077C110.823 34.3077 119.825 37.6305 118.461 51.3978L107.822 57.0944L121.189 52.5851C121.189 52.5851 123.371 58.7566 122.007 64.6902" fill-rule="nonzero" opacity="1" stroke="none"/>
<path d="M89.2545 95.5314C79.3024 87.9986 74.269 78.5763 74.269 78.5763L71.2683 81.4248C72.2555 85.7185 77.0108 91.5651 80.6314 95.5314L89.2545 95.5314Z" fill-rule="nonzero" opacity="1" stroke="none"/>
<path d="M78.8784 95.5314C72.4733 89.7472 66.3582 81.4248 66.3582 81.4248L61.9937 85.9348C63.0931 88.8046 65.657 92.2796 68.4647 95.5314L78.8784 95.5314Z" fill-rule="nonzero" opacity="1" stroke="none"/>
<path d="M112.689 95.5101C122.641 87.9774 127.675 78.5551 127.675 78.5551L130.675 81.4035C129.688 85.6972 124.933 91.5439 121.312 95.5101L112.689 95.5101Z" fill-rule="nonzero" opacity="1" stroke="none"/>
<path d="M123.065 95.5101C129.47 89.7259 135.586 81.4035 135.586 81.4035L139.95 85.9135C138.851 88.7833 136.287 92.2584 133.479 95.5101L123.065 95.5101Z" fill-rule="nonzero" opacity="1" stroke="none"/>
<path d="M68.9403 97.8591C68.7195 99.4062 68.4991 100.953 68.2783 102.501C66.4712 102.558 64.6647 102.619 62.8589 102.685C62.4897 105.014 62.1214 107.344 61.7523 109.672C61.736 109.778 61.7188 109.884 61.7022 109.989C61.751 110.03 61.7962 110.067 61.8395 110.103C62.1581 110.37 62.3584 110.536 62.7168 110.828C62.1934 111.241 61.9316 111.449 61.405 111.871C60.7654 115.914 60.1257 119.958 59.4861 124.001C57.5121 124.366 55.5434 124.753 53.5786 125.162C54.3011 120.939 55.0226 116.716 55.7457 112.493C55.338 112.16 55.135 111.991 54.7305 111.651C54.8493 111.552 54.9551 111.464 55.0535 111.381C55.0707 111.368 55.0863 111.354 55.1029 111.341C55.4291 111.069 55.6807 110.86 56.0811 110.529C56.516 107.986 56.9508 105.443 57.3853 102.899C55.5823 102.975 53.7777 103.055 51.9744 103.14C51.9814 103.103 51.9843 103.084 51.9913 103.046C51.9725 103.084 51.9633 103.103 51.9442 103.141C49.8908 101.463 47.9069 99.7143 45.9835 97.8887C48.2971 97.888 50.6104 97.8874 52.9246 97.8868C52.9266 97.8756 52.9278 97.8702 52.9291 97.8591L68.9403 97.8591Z" fill-rule="nonzero" opacity="1" stroke="none"/>
<path d="M74.3316 106.986C74.696 103.943 75.0605 100.901 75.4249 97.8592L71.0471 97.8592C70.6228 100.984 70.1985 104.109 69.7742 107.233C69.3534 107.549 69.1412 107.707 68.7182 108.028C68.7854 108.079 68.8456 108.127 68.9023 108.17C69.1339 108.35 69.2995 108.476 69.5779 108.686C69.5687 108.755 69.5595 108.824 69.5496 108.893C69.1351 111.948 68.721 115.005 68.306 118.061C69.8917 117.871 71.4797 117.693 73.0689 117.526C73.4333 114.484 73.7977 111.442 74.1622 108.4C74.229 108.352 74.2902 108.306 74.3472 108.265C74.6454 108.045 74.8458 107.899 75.1892 107.649C74.9429 107.46 74.7846 107.338 74.589 107.186C74.5116 107.126 74.4288 107.062 74.3316 106.986" fill-rule="nonzero" opacity="1" stroke="none"/>
<path d="M85.9745 101.313C87.4437 101.295 88.9125 101.282 90.3816 101.269C90.4418 100.132 90.5024 98.9958 90.5619 97.8592L77.5164 97.8592C77.3833 99.0556 77.2492 100.251 77.116 101.449C78.5842 101.421 80.0534 101.396 81.5215 101.373C81.3686 103.012 81.2148 104.651 81.0619 106.29C81.0495 106.424 81.037 106.558 81.0246 106.692C80.6165 106.983 80.4117 107.129 80.0008 107.422C80.1059 107.498 80.1951 107.562 80.2779 107.621C80.4789 107.764 80.6423 107.881 80.8965 108.061C80.6213 111.005 80.3461 113.95 80.0702 116.894C81.6633 116.774 83.2567 116.665 84.8504 116.568C85.0638 113.674 85.2772 110.78 85.49 107.886C85.8885 107.607 86.087 107.468 86.4842 107.191C86.446 107.164 86.41 107.138 86.3759 107.113C86.0847 106.902 85.9083 106.773 85.5891 106.541C85.6076 106.293 85.6257 106.046 85.6436 105.798C85.7538 104.303 85.8643 102.808 85.9745 101.313" fill-rule="nonzero" opacity="1" stroke="none"/>
<path d="M94.5724 108.709C94.7785 108.026 94.9843 107.341 95.1879 106.656C95.3389 106.149 95.4886 105.642 95.6377 105.134C95.8253 104.497 96.0113 103.86 96.197 103.222C96.3487 103.848 96.5025 104.473 96.6573 105.098C96.7816 105.599 96.9061 106.1 97.0329 106.602C97.2065 107.293 97.3817 107.984 97.5582 108.675C96.5627 108.684 95.5673 108.696 94.5724 108.709M101.678 106.532C101.538 106.024 101.4 105.515 101.262 105.005C100.62 102.629 99.9973 100.246 99.3949 97.8589L93.2559 97.8589C92.5079 100.37 91.7396 102.877 90.9547 105.376C90.7999 105.87 90.6435 106.364 90.4874 106.859C89.4741 110.057 88.4318 113.247 87.3653 116.429C88.988 116.35 90.61 116.284 92.2333 116.229C92.6707 114.857 93.1042 113.484 93.5308 112.11C95.1659 112.075 96.8026 112.051 98.4383 112.036C98.7983 113.389 99.1659 114.742 99.5402 116.091C101.164 116.086 102.789 116.091 104.412 116.11C103.468 112.926 102.555 109.734 101.678 106.532" fill-rule="nonzero" opacity="1" stroke="none"/>
<path d="M120.972 108.056C121.332 107.8 121.511 107.672 121.868 107.417C121.828 107.389 121.791 107.362 121.755 107.337C121.416 107.093 121.213 106.949 120.845 106.687C120.822 106.438 120.798 106.188 120.775 105.938C120.524 103.245 120.275 100.552 120.025 97.8589L115.691 97.8589C115.878 100.416 116.066 102.973 116.253 105.53C116.287 105.999 116.322 106.469 116.356 106.938C116.374 107.182 116.392 107.426 116.41 107.669C116.266 107.418 116.121 107.167 115.977 106.916C115.698 106.427 115.419 105.937 115.14 105.447C113.709 102.929 112.295 100.401 110.906 97.8589L106.227 97.8589C106.29 100.254 106.354 102.649 106.418 105.043C106.43 105.477 106.442 105.911 106.454 106.345C106.341 106.424 106.245 106.491 106.156 106.553C105.947 106.697 105.775 106.817 105.51 107C105.901 107.263 106.096 107.396 106.488 107.661C106.565 110.49 106.641 113.319 106.716 116.147C108.302 116.184 109.887 116.23 111.471 116.289C111.316 113.086 111.159 109.882 111.004 106.677C111.003 106.663 111.003 106.648 111.002 106.634C111.01 106.648 111.018 106.663 111.027 106.678C112.88 109.984 114.769 113.269 116.684 116.54C118.393 116.641 120.101 116.756 121.809 116.884C121.801 116.874 121.797 116.869 121.79 116.859C121.517 113.925 121.244 110.99 120.972 108.056" fill-rule="nonzero" opacity="1" stroke="none"/>
<path d="M135.936 114.619C133.429 114.349 130.922 114.105 128.411 113.888C128.236 112.427 128.062 110.968 127.886 109.509C129.982 109.643 132.076 109.79 134.17 109.952C134.114 109.556 134.058 109.16 134.003 108.763C133.957 108.44 133.912 108.117 133.866 107.794C133.79 107.254 133.713 106.712 133.638 106.172C131.576 106.061 129.514 105.96 127.451 105.867C127.277 104.408 127.102 102.948 126.928 101.488C129.278 101.536 131.627 101.591 133.977 101.651C133.795 100.387 133.613 99.123 133.432 97.859L122.131 97.859L122.98 106.18C123 106.378 123.02 106.576 123.04 106.774C122.709 107.019 122.532 107.149 122.221 107.378C122.199 107.393 122.175 107.41 122.152 107.428C122.562 107.718 122.767 107.863 123.181 108.155C123.484 111.126 123.786 114.098 124.089 117.069C128.231 117.429 132.36 117.877 136.482 118.412C136.3 117.148 136.118 115.883 135.936 114.619" fill-rule="nonzero" opacity="1" stroke="none"/>
<path d="M156.573 124.08C155.53 124.815 154.478 125.532 153.414 126.235C150.049 125.457 146.671 124.749 143.277 124.109C141.887 122.98 140.485 121.866 139.074 120.763C138.868 119.39 138.661 118.017 138.455 116.645C140.373 116.892 142.287 117.156 144.202 117.435C144.32 118.152 144.438 118.871 144.557 119.589C146.503 119.908 148.447 120.246 150.387 120.602C150.023 118.531 149.658 116.46 149.294 114.389C146.721 114.038 144.145 113.714 141.566 113.415C140.221 112.375 138.867 111.347 137.505 110.328C137.452 109.98 137.4 109.633 137.348 109.285C137.305 109.001 137.262 108.717 137.219 108.433C136.824 105.804 136.428 103.174 136.032 100.545C137.06 99.6641 138.075 98.7706 139.077 97.8589L148.317 97.8589C148.332 97.8701 148.339 97.8755 148.353 97.8866C150.909 97.8873 153.465 97.8879 156.021 97.8885C154.821 99.028 153.599 100.14 152.351 101.227C152.612 102.638 152.872 104.05 153.134 105.463C151.308 105.337 149.483 105.217 147.656 105.104C147.534 104.405 147.411 103.707 147.288 103.008C145.454 102.927 143.62 102.851 141.787 102.778C142.113 104.757 142.438 106.736 142.765 108.715C145.31 108.933 147.852 109.167 150.394 109.419C151.721 110.51 153.038 111.613 154.346 112.729C154.397 112.773 154.449 112.818 154.5 112.861C154.503 112.877 154.506 112.892 154.509 112.908C155.197 116.633 155.885 120.356 156.573 124.08" fill-rule="nonzero" opacity="1" stroke="none"/>
<path d="M91.9127 141.222C91.2934 141.105 90.6646 141 90.0364 140.975C88.6727 140.921 87.3071 140.921 85.8316 140.897C85.786 139.182 85.7392 137.427 85.6914 135.629C87.4485 135.506 89.2655 135.602 91.0714 135.969C91.9503 136.148 92.645 135.709 92.8056 134.926C92.8307 134.804 92.839 134.683 92.8323 134.566C87.5304 134.476 82.5735 134.321 78.2119 134.147C77.4723 134.332 76.7342 134.521 75.9996 134.723C74.9841 135.004 74.5661 135.758 74.8481 136.562C75.1188 137.335 75.8693 137.607 76.8412 137.322C77.8714 137.02 78.9067 136.735 79.9471 136.472C80.5892 136.31 81.2451 136.202 81.8899 136.071C82.2272 137.874 82.548 139.588 82.8818 141.372C82.6824 141.415 82.5174 141.443 82.3569 141.487C80.3277 142.041 78.2903 142.568 76.2745 143.167C75.2912 143.459 74.8962 144.201 75.1618 144.976C75.3858 145.629 76.1525 146.165 77.1954 145.744C78.1294 145.367 79.1083 145.091 80.0837 144.832C81.2346 144.526 82.4034 144.286 83.5967 144.011C84.6434 147.494 85.8698 150.785 87.6581 154.009C87.122 150.485 86.6104 147.123 86.0931 143.722C87.9764 143.571 89.715 143.6 91.4505 143.89C92.2561 144.025 92.9209 143.554 93.0575 142.825C93.2015 142.059 92.7374 141.379 91.9127 141.222" fill-rule="nonzero" opacity="1" stroke="none"/>
<path d="M123.926 134.137C122.605 139.1 120.895 143.956 118.879 148.726C118.186 150.367 117.441 151.986 116.686 153.692C116.94 153.581 117.138 153.516 117.314 153.413C119.346 152.222 121.371 151.021 123.406 149.835C123.892 149.551 124.142 149.155 124.298 148.613C125.684 143.783 126.809 138.897 127.564 133.931C126.371 134.005 125.159 134.074 123.926 134.137" fill-rule="nonzero" opacity="1" stroke="none"/>
<path d="M118.714 134.364C116.044 141.167 112.474 147.525 108.347 153.606C107.593 154.718 106.81 155.809 105.974 157.004C106.346 156.955 106.617 156.943 106.875 156.881C108.572 156.471 110.264 156.043 111.962 155.636C112.445 155.52 112.741 155.251 112.974 154.804C115.149 150.64 117.12 146.385 118.755 141.979C119.7 139.429 120.543 136.86 121.252 134.263C120.415 134.3 119.569 134.333 118.714 134.364" fill-rule="nonzero" opacity="1" stroke="none"/>
<path d="M67.1709 136.059C67.0604 135.265 66.9633 134.472 66.876 133.68C64.1664 133.53 62.0618 133.395 60.7229 133.305C61.2823 137.941 62.3032 142.521 63.8048 147.039C66.8231 156.12 71.5475 164.203 78.1449 171.161C81.037 174.211 84.2053 176.941 87.6921 179.264C85.906 177.055 84.0575 174.895 82.3453 172.631C74.1239 161.758 69.0526 149.566 67.1709 136.059" fill-rule="nonzero" opacity="1" stroke="none"/>
<path d="M134.698 136.059C134.808 135.265 134.905 134.472 134.993 133.68C137.702 133.53 139.807 133.395 141.146 133.305C140.586 137.941 139.565 142.521 138.064 147.039C135.046 156.12 130.321 164.203 123.724 171.161C120.832 174.211 117.663 176.941 114.177 179.264C115.963 177.055 117.811 174.895 119.523 172.631C127.745 161.758 132.816 149.566 134.698 136.059" fill-rule="nonzero" opacity="1" stroke="none"/>
<path d="M91.7251 129.394C92.2876 129.415 92.5689 129.424 93.1314 129.442C93.133 128.731 93.1343 128.02 93.1359 127.309C92.5737 127.297 92.2927 127.29 91.7305 127.274C91.7286 127.981 91.727 128.688 91.7251 129.394" fill-rule="nonzero" opacity="1" stroke="none"/>
<path d="M72.5548 124.754C73.1206 124.788 73.4038 124.805 73.9698 124.838C73.9711 124.135 73.9717 123.784 73.9733 123.082C73.4066 123.067 73.1234 123.06 72.5571 123.044C72.5561 123.728 72.5558 124.07 72.5548 124.754" fill-rule="nonzero" opacity="1" stroke="none"/>
<path d="M91.7348 125.512C92.2968 125.523 92.5777 125.528 93.1396 125.536C93.1412 124.825 93.1428 124.115 93.1444 123.404C92.5828 123.4 92.3019 123.398 91.7402 123.393C91.7383 124.099 91.7367 124.806 91.7348 125.512" fill-rule="nonzero" opacity="1" stroke="none"/>
<path d="M128.169 123.041C127.608 123.057 127.327 123.065 126.766 123.079C126.768 123.776 126.768 124.124 126.769 124.821C127.33 124.788 127.61 124.771 128.17 124.737C128.169 124.059 128.169 123.72 128.169 123.041" fill-rule="nonzero" opacity="1" stroke="none"/>
<path d="M126.772 126.268C126.774 126.964 126.774 127.313 126.775 128.009C127.335 127.944 127.615 127.911 128.174 127.842C128.173 127.164 128.172 126.825 128.172 126.146C127.612 126.196 127.332 126.221 126.772 126.268" fill-rule="nonzero" opacity="1" stroke="none"/>
<path d="M129.538 124.689C129.327 124.959 129.222 125.095 129.012 125.37C129.222 125.619 129.327 125.742 129.538 125.984L129.538 128.263C129.189 128.622 129.015 128.804 128.667 129.172C127.585 129.339 126.502 129.494 125.418 129.641C125.415 128.403 125.412 127.165 125.409 125.927C125.294 125.821 125.236 125.768 125.121 125.661C125.236 125.537 125.293 125.475 125.407 125.351C125.404 124.113 125.401 122.875 125.398 121.637C126.486 121.637 127.573 121.637 128.662 121.637C129.012 121.953 129.187 122.109 129.538 122.414L129.538 124.689ZM123.32 129.045C122.964 129.432 122.787 129.627 122.43 130.022C121.602 130.121 120.773 130.215 119.943 130.302C119.592 129.978 119.416 129.813 119.064 129.479C119.06 128.429 119.056 127.379 119.052 126.33C118.937 126.211 118.879 126.151 118.764 126.032C118.878 125.899 118.935 125.832 119.049 125.7C119.044 124.346 119.039 122.991 119.034 121.637L120.399 121.637C120.404 122.969 120.41 124.301 120.415 125.634C120.53 125.753 120.588 125.812 120.703 125.93C120.589 126.059 120.532 126.124 120.417 126.253C120.42 127.056 120.423 127.858 120.426 128.66C121.038 128.606 121.344 128.578 121.955 128.52C121.952 127.733 121.949 126.947 121.947 126.161C121.831 126.048 121.774 125.991 121.658 125.877C121.773 125.747 121.83 125.683 121.944 125.554C121.94 124.248 121.935 122.942 121.93 121.637L123.296 121.637C123.3 122.917 123.305 124.197 123.309 125.477C123.422 125.591 123.478 125.648 123.592 125.76C123.479 125.885 123.423 125.947 123.311 126.073C123.314 127.063 123.317 128.054 123.32 129.045M113.574 130.867C113.569 129.439 113.564 128.011 113.559 126.584C113.445 126.456 113.388 126.393 113.274 126.265C113.387 126.127 113.444 126.058 113.556 125.92C113.551 124.492 113.546 123.064 113.541 121.637L114.911 121.637C114.917 123.049 114.922 124.46 114.927 125.872C115.043 126 115.101 126.064 115.216 126.192C115.102 126.326 115.044 126.394 114.93 126.529C114.933 127.379 114.936 128.229 114.939 129.079C115.612 129.036 116.284 128.99 116.956 128.94C116.958 129.602 116.96 129.933 116.962 130.594C115.833 130.693 114.704 130.784 113.574 130.867M110.572 131.057C109.76 131.102 108.946 131.142 108.132 131.176C107.782 130.792 107.607 130.599 107.257 130.211C107.254 129.064 107.252 127.916 107.249 126.768C107.134 126.634 107.076 126.567 106.961 126.432C107.075 126.291 107.133 126.221 107.248 126.079C107.245 124.934 107.243 123.788 107.24 122.642C107.588 122.239 107.762 122.037 108.109 121.637C108.921 121.637 109.733 121.637 110.544 121.637C110.904 122.035 111.083 122.233 111.442 122.627C111.444 123.204 111.445 123.493 111.447 124.07C110.901 124.078 110.627 124.083 110.081 124.09C110.08 123.806 110.079 123.664 110.078 123.38C109.49 123.386 109.197 123.389 108.609 123.394C108.611 124.28 108.613 125.167 108.615 126.053C108.731 126.189 108.788 126.257 108.904 126.392C108.789 126.53 108.732 126.599 108.617 126.738C108.619 127.624 108.621 128.511 108.624 129.397C109.213 129.376 109.507 129.364 110.096 129.339C110.095 129.033 110.094 128.881 110.093 128.575C110.641 128.554 110.914 128.543 111.461 128.519C111.463 129.122 111.464 129.424 111.466 130.027C111.109 130.438 110.93 130.644 110.572 131.057M99.6476 127.765C99.6476 128.958 99.6473 130.15 99.6469 131.342C99.0914 131.341 98.8136 131.339 98.2581 131.333C98.2587 130.137 98.2593 128.942 98.2603 127.747C97.7153 125.71 97.1702 123.673 96.6249 121.637L98.0287 121.637C98.339 122.841 98.6492 124.045 98.9595 125.25C99.2666 124.045 99.5733 122.841 99.8795 121.637L101.33 121.637C100.77 123.68 100.209 125.723 99.6476 127.765M94.5116 125.605C94.2998 125.935 94.194 126.1 93.9819 126.429C94.1928 126.772 94.2979 126.944 94.5088 127.288C94.5072 128.276 94.5052 129.264 94.5037 130.252C94.1517 130.644 93.9755 130.839 93.6235 131.227C92.5325 131.189 91.4418 131.14 90.3517 131.083C90.3558 129.622 90.36 128.161 90.3644 126.7C90.2498 126.562 90.1924 126.493 90.0777 126.355C90.1931 126.222 90.2507 126.154 90.3664 126.02C90.3705 124.559 90.3746 123.098 90.3788 121.637C91.4669 121.637 92.5548 121.637 93.6426 121.637C93.9924 122.04 94.1673 122.242 94.517 122.647C94.5151 123.633 94.5135 124.619 94.5116 125.605M88.256 126.633C88.2525 127.751 88.2486 128.869 88.2448 129.986C87.889 130.355 87.7109 130.539 87.3551 130.901C86.5342 130.844 85.714 130.783 84.894 130.715C84.5468 130.308 84.3732 130.105 84.026 129.702C84.0301 128.622 84.0342 127.543 84.0384 126.463C83.9259 126.33 83.8699 126.263 83.7571 126.13C83.8708 126.004 83.9275 125.942 84.0409 125.815C84.0451 124.738 84.0495 123.66 84.0537 122.582C84.4092 122.208 84.5872 122.018 84.9427 121.637L87.3873 121.637C87.7399 122.026 87.9164 122.222 88.2693 122.616C88.2674 123.2 88.2665 123.492 88.2646 124.076C87.7179 124.067 87.4446 124.062 86.8983 124.052C86.8993 123.767 86.8996 123.625 86.9005 123.341C86.309 123.333 86.0131 123.329 85.4215 123.32C85.4183 124.169 85.4152 125.019 85.412 125.868C85.5263 126.005 85.5837 126.073 85.698 126.21C85.5827 126.336 85.5251 126.399 85.4094 126.524C85.4062 127.373 85.4031 128.223 85.3999 129.072C85.992 129.11 86.288 129.129 86.8802 129.163C86.8824 128.478 86.8849 127.792 86.8875 127.107C86.5141 127.091 86.3275 127.083 85.9541 127.066C85.9567 126.387 85.958 126.048 85.9605 125.369C86.7269 125.393 87.4934 125.415 88.2601 125.435C88.2592 125.646 88.2588 125.752 88.2582 125.963C88.3729 126.102 88.4302 126.171 88.5446 126.31C88.4293 126.44 88.3716 126.505 88.256 126.633M81.9417 126.359C81.9376 127.414 81.9334 128.468 81.9293 129.522C81.5703 129.861 81.3906 130.029 81.0316 130.358C80.2015 130.273 79.3723 130.182 78.5434 130.085C78.1949 129.692 78.0207 129.497 77.6725 129.11C77.6757 128.11 77.6792 127.109 77.6827 126.109C77.5684 125.983 77.511 125.92 77.3967 125.794C77.512 125.681 77.5696 125.624 77.6846 125.509C77.6891 124.218 77.6935 122.927 77.698 121.637L79.0639 121.637C79.0588 122.952 79.0541 124.268 79.0493 125.583C79.1636 125.713 79.221 125.778 79.335 125.908C79.22 126.023 79.1624 126.081 79.0471 126.195C79.0442 126.987 79.041 127.779 79.0381 128.571C79.6498 128.628 79.9556 128.656 80.5672 128.708C80.5704 127.9 80.5735 127.092 80.5767 126.285C80.4621 126.155 80.405 126.09 80.2907 125.96C80.406 125.841 80.4636 125.781 80.579 125.661C80.5844 124.32 80.5895 122.978 80.5946 121.637L81.9605 121.637C81.9551 123 81.9497 124.363 81.9443 125.726C82.0567 125.858 82.1131 125.925 82.2255 126.059C82.1121 126.18 82.0554 126.239 81.9417 126.359M74.1102 129.515C73.7314 128.41 73.3473 127.307 72.9571 126.207C72.7952 126.193 72.7146 126.186 72.5531 126.172C72.5519 127.211 72.5506 128.25 72.5493 129.289C72.004 129.207 71.7313 129.166 71.1862 129.08C71.1866 127.908 71.1869 126.736 71.1872 125.565L71.1872 125.626C71.0744 125.511 71.0181 125.453 70.9056 125.339C71.0181 125.24 71.0744 125.191 71.1872 125.091C71.1875 123.939 71.1878 122.788 71.1882 121.637C72.2824 121.637 73.3766 121.637 74.4708 121.637C74.8187 121.97 74.9923 122.139 75.3398 122.482C75.3372 123.466 75.3347 124.451 75.3318 125.436C74.9585 125.792 74.7718 125.966 74.3988 126.309C74.7944 127.442 75.1843 128.578 75.5692 129.714C74.9853 129.637 74.6935 129.597 74.1102 129.515M139.591 131.729C139.591 131.729 139.429 124.578 134.294 120.417C126.974 119.942 114.881 119.311 101.262 119.219L101.262 119.216C101.205 119.217 101.147 119.217 101.09 119.217C101.032 119.217 100.975 119.217 100.917 119.216L100.917 119.219C87.1691 119.312 74.9741 119.954 67.6762 120.43C62.5574 124.593 62.3956 131.729 62.3956 131.729C67.5647 132.048 82.9101 132.899 100.917 132.997L100.917 132.999C100.975 132.998 101.032 132.998 101.09 132.998C101.147 132.998 101.205 132.998 101.262 132.999L101.262 132.997C119.269 132.899 134.615 132.048 139.784 131.729C139.785 131.72 139.786 131.711 139.787 131.702L139.591 131.729Z" fill-rule="nonzero" opacity="1" stroke="none"/>
<path d="M76.3303 159.973C78.3897 164.012 80.8467 167.927 83.6547 171.641C84.6489 172.955 85.7128 174.262 86.7605 175.536C89.2108 178.119 91.5948 179.885 93.8727 181.029C93.9594 181.071 94.046 181.112 94.1327 181.152C94.1451 181.157 94.1575 181.163 94.1699 181.169C94.284 181.221 94.3977 181.272 94.5111 181.322C94.5242 181.328 94.5372 181.333 94.5503 181.339C94.9297 181.504 95.3053 181.652 95.6773 181.785C95.6783 181.786 95.6789 181.786 95.6799 181.786C95.7996 181.829 95.9188 181.87 96.0376 181.91C96.05 181.914 96.0628 181.918 96.0752 181.922C96.1876 181.96 96.2998 181.996 96.4116 182.03C96.4205 182.033 96.4297 182.036 96.4386 182.039C96.8062 182.151 97.17 182.249 97.53 182.334C97.5348 182.335 97.5399 182.336 97.5446 182.337C97.6574 182.364 97.7699 182.389 97.882 182.412C97.8925 182.414 97.9033 182.417 97.9138 182.419C98.0276 182.443 98.141 182.465 98.2537 182.486C98.2563 182.487 98.2585 182.487 98.2611 182.488C98.6175 182.554 98.9695 182.607 99.3174 182.648C99.3228 182.649 99.3279 182.649 99.333 182.65C99.4429 182.662 99.5525 182.674 99.6617 182.684C99.6681 182.685 99.6748 182.686 99.6811 182.686C100.14 182.729 100.592 182.75 101.034 182.752C101.038 182.752 101.041 182.752 101.044 182.752C101.154 182.753 101.263 182.752 101.372 182.75C101.391 182.75 101.409 182.75 101.428 182.749C101.565 182.746 101.701 182.741 101.837 182.735C101.849 182.734 101.861 182.734 101.873 182.733C102.141 182.72 102.405 182.699 102.666 182.673C102.678 182.672 102.69 182.67 102.702 182.669C102.964 182.642 103.223 182.608 103.478 182.568C103.487 182.567 103.497 182.565 103.507 182.564C103.634 182.544 103.761 182.522 103.888 182.499C103.891 182.499 103.895 182.498 103.899 182.497C104.024 182.474 104.149 182.45 104.273 182.424C104.277 182.423 104.281 182.422 104.285 182.421C104.409 182.396 104.532 182.368 104.654 182.34C104.664 182.338 104.674 182.335 104.684 182.333C104.898 182.282 105.109 182.227 105.318 182.17C109.891 180.82 113.203 177.673 114.518 176.253C114.549 176.216 114.581 176.177 114.612 176.14C115.817 174.676 117.062 173.163 118.214 171.641C121.022 167.927 123.479 164.012 125.538 159.973C125.538 159.973 100.909 175.142 76.3303 159.973" fill-rule="nonzero" opacity="1" stroke="none"/>
</g>
</svg>
